<svg width="32" height="32" viewBox="0 0 38 38" fill="none" xmlns="http://www.w3.org/2000/svg">
<path d="M15.9442 4.46505L4.97168 13.2525C3.73668 14.2342 2.94501 16.3084 3.21418 17.8601L5.32002 30.4634C5.70002 32.7117 7.85334 34.5325 10.1333 34.5325H27.8667C30.1309 34.5325 32.3 32.6959 32.68 30.4634L34.7859 17.8601C35.0392 16.3084 34.2475 14.2342 33.0284 13.2525L22.0558 4.48089C20.3617 3.11923 17.6225 3.11921 15.9442 4.46505Z" stroke="#EA5E44" stroke-width="2" stroke-linecap="round" stroke-linejoin="round"/>
<path d="M19 24.5417C21.1861 24.5417 22.9583 22.7695 22.9583 20.5833C22.9583 18.3972 21.1861 16.625 19 16.625C16.8138 16.625 15.0416 18.3972 15.0416 20.5833C15.0416 22.7695 16.8138 24.5417 19 24.5417Z" stroke="#EA5E44" stroke-width="2" stroke-linecap="round" stroke-linejoin="round"/>
</svg>
