<svg width="28" height="28" viewBox="0 0 28 28" fill="none" xmlns="http://www.w3.org/2000/svg">
<path d="M20.4634 9.69502C22.0484 9.69502 23.3334 8.41007 23.3334 6.82502C23.3334 5.23996 22.0484 3.95502 20.4634 3.95502C18.8783 3.95502 17.5934 5.23996 17.5934 6.82502C17.5934 8.41007 18.8783 9.69502 20.4634 9.69502Z" stroke="#D3D3D3" stroke-width="1.5" stroke-miterlimit="10" stroke-linecap="round" stroke-linejoin="round"/>
<path d="M7.53669 9.69502C9.12175 9.69502 10.4067 8.41007 10.4067 6.82502C10.4067 5.23996 9.12175 3.95502 7.53669 3.95502C5.95164 3.95502 4.66669 5.23996 4.66669 6.82502C4.66669 8.41007 5.95164 9.69502 7.53669 9.69502Z" stroke="#D3D3D3" stroke-width="1.5" stroke-miterlimit="10" stroke-linecap="round" stroke-linejoin="round"/>
<path d="M20.4634 24.045C22.0484 24.045 23.3334 22.76 23.3334 21.175C23.3334 19.5899 22.0484 18.305 20.4634 18.305C18.8783 18.305 17.5934 19.5899 17.5934 21.175C17.5934 22.76 18.8783 24.045 20.4634 24.045Z" stroke="#D3D3D3" stroke-width="1.5" stroke-miterlimit="10" stroke-linecap="round" stroke-linejoin="round"/>
<path d="M7.53669 24.045C9.12175 24.045 10.4067 22.76 10.4067 21.175C10.4067 19.5899 9.12175 18.305 7.53669 18.305C5.95164 18.305 4.66669 19.5899 4.66669 21.175C4.66669 22.76 5.95164 24.045 7.53669 24.045Z" stroke="#D3D3D3" stroke-width="1.5" stroke-miterlimit="10" stroke-linecap="round" stroke-linejoin="round"/>
</svg>
