<svg width="32" height="32" viewBox="0 0 38 38" fill="none" xmlns="http://www.w3.org/2000/svg">
<path d="M15.9125 4.00584L6.38083 10.2283C3.325 12.2233 3.325 16.6883 6.38083 18.6833L15.9125 24.9058C17.6225 26.03 20.4408 26.03 22.1508 24.9058L31.635 18.6833C34.675 16.6883 34.675 12.2392 31.635 10.2442L22.1508 4.02167C20.4408 2.88167 17.6225 2.88167 15.9125 4.00584Z" stroke="#EA5E44" stroke-width="2" stroke-linecap="round" stroke-linejoin="round"/>
<path d="M8.91418 20.71L8.89835 28.1358C8.89835 30.1467 10.45 32.3 12.35 32.9333L17.4008 34.6117C18.2717 34.8967 19.7125 34.8967 20.5992 34.6117L25.65 32.9333C27.55 32.3 29.1017 30.1467 29.1017 28.1358V20.7892" stroke="#EA5E44" stroke-width="2" stroke-linecap="round" stroke-linejoin="round"/>
<path d="M33.8833 23.75V14.25" stroke="#EA5E44" stroke-width="2" stroke-linecap="round" stroke-linejoin="round"/>
</svg>
