<svg width="32" height="32" viewBox="0 0 38 38" fill="none" xmlns="http://www.w3.org/2000/svg">
<path d="M15.9125 4.00583L6.38086 10.2283C3.32503 12.2233 3.32503 16.6883 6.38086 18.6833L15.9125 24.9058C17.6225 26.03 20.4409 26.03 22.1509 24.9058L31.635 18.6833C34.675 16.6883 34.675 12.2392 31.635 10.2442L22.1509 4.02166C20.4409 2.88166 17.6225 2.88166 15.9125 4.00583Z" stroke="#9D9B9B" stroke-width="2" stroke-linecap="round" stroke-linejoin="round"/>
<path d="M8.91415 20.71L8.89832 28.1358C8.89832 30.1467 10.45 32.3 12.35 32.9333L17.4008 34.6117C18.2716 34.8967 19.7125 34.8967 20.5991 34.6117L25.65 32.9333C27.55 32.3 29.1016 30.1467 29.1016 28.1358V20.7892" stroke="#9D9B9B" stroke-width="2" stroke-linecap="round" stroke-linejoin="round"/>
<path d="M33.8834 23.75V14.25" stroke="#9D9B9B" stroke-width="2" stroke-linecap="round" stroke-linejoin="round"/>
</svg>
