<svg width="32" height="32" viewBox="0 0 38 38" fill="none" xmlns="http://www.w3.org/2000/svg">
<path d="M4.76587 17.765V24.8742C4.76587 31.9833 7.61587 34.8333 14.725 34.8333H23.2592C30.3684 34.8333 33.2184 31.9833 33.2184 24.8742V17.765" stroke="#9D9B9B" stroke-width="2" stroke-linecap="round" stroke-linejoin="round"/>
<path d="M19 19C21.8975 19 24.035 16.6408 23.75 13.7433L22.705 3.16666H15.3108L14.25 13.7433C13.965 16.6408 16.1025 19 19 19Z" stroke="#9D9B9B" stroke-width="2" stroke-linecap="round" stroke-linejoin="round"/>
<path d="M28.9909 19C32.1892 19 34.5326 16.4033 34.2159 13.2208L33.7726 8.86666C33.2026 4.75 31.6192 3.16666 27.4709 3.16666H22.6417L23.7501 14.2658C24.0192 16.8783 26.3784 19 28.9909 19Z" stroke="#9D9B9B" stroke-width="2" stroke-linecap="round" stroke-linejoin="round"/>
<path d="M8.93006 19C11.5426 19 13.9017 16.8783 14.1551 14.2658L14.5034 10.7667L15.2634 3.16666H10.4342C6.28589 3.16666 4.70256 4.75 4.13256 8.86666L3.70506 13.2208C3.38839 16.4033 5.73172 19 8.93006 19Z" stroke="#9D9B9B" stroke-width="2" stroke-linecap="round" stroke-linejoin="round"/>
<path d="M19 26.9167C16.3558 26.9167 15.0416 28.2308 15.0416 30.875V34.8333H22.9583V30.875C22.9583 28.2308 21.6441 26.9167 19 26.9167Z" stroke="#9D9B9B" stroke-width="2" stroke-linecap="round" stroke-linejoin="round"/>
</svg>
