<svg width="32" height="32" viewBox="0 0 38 38" fill="none" xmlns="http://www.w3.org/2000/svg">
<path d="M4.76581 17.765V24.8742C4.76581 31.9833 7.61581 34.8333 14.725 34.8333H23.2591C30.3683 34.8333 33.2183 31.9833 33.2183 24.8742V17.765" stroke="#EA5E44" stroke-width="2" stroke-linecap="round" stroke-linejoin="round"/>
<path d="M19 19C21.8975 19 24.035 16.6408 23.75 13.7433L22.705 3.16666H15.3108L14.25 13.7433C13.965 16.6408 16.1025 19 19 19Z" stroke="#EA5E44" stroke-width="2" stroke-linecap="round" stroke-linejoin="round"/>
<path d="M28.9908 19C32.1892 19 34.5325 16.4033 34.2158 13.2208L33.7725 8.86666C33.2025 4.75 31.6192 3.16666 27.4708 3.16666H22.6417L23.75 14.2658C24.0192 16.8783 26.3783 19 28.9908 19Z" stroke="#EA5E44" stroke-width="2" stroke-linecap="round" stroke-linejoin="round"/>
<path d="M8.93 19C11.5425 19 13.9017 16.8783 14.155 14.2658L14.5033 10.7667L15.2633 3.16666H10.4342C6.28583 3.16666 4.7025 4.75 4.1325 8.86666L3.705 13.2208C3.38833 16.4033 5.73166 19 8.93 19Z" stroke="#EA5E44" stroke-width="2" stroke-linecap="round" stroke-linejoin="round"/>
<path d="M19 26.9167C16.3559 26.9167 15.0417 28.2308 15.0417 30.875V34.8333H22.9584V30.875C22.9584 28.2308 21.6442 26.9167 19 26.9167Z" stroke="#EA5E44" stroke-width="2" stroke-linecap="round" stroke-linejoin="round"/>
<rect x="0.5" y="0.5" width="37" height="37" stroke="#FEFEFE"/>
</svg>
