<svg width="205" height="122" viewBox="0 0 205 122" fill="none" xmlns="http://www.w3.org/2000/svg">
<g clip-path="url(#clip0_116_692)">
<path d="M156.953 120.62C154.328 118.413 152.734 114.926 153.152 111.531C153.57 108.136 156.16 105.015 159.519 104.294C162.877 103.573 166.706 105.569 167.727 108.835C168.288 102.538 168.935 95.977 172.298 90.6146C175.344 85.7591 180.618 82.2848 186.335 81.6633C192.051 81.0417 198.07 83.3892 201.635 87.8805C205.2 92.3717 206.073 98.9011 203.576 104.057C201.736 107.856 198.348 110.683 194.797 112.983C183.324 120.351 169.563 123.348 156.046 121.421L156.953 120.62Z" fill="#F7C16E"/>
<path d="M195.982 83.5193C191.265 87.3435 186.938 91.6207 183.063 96.2889C176.999 103.57 172.092 111.732 168.512 120.493C168.25 121.132 169.293 121.411 169.552 120.779C175.408 106.54 184.757 93.991 196.744 84.2782C197.283 83.8419 196.516 83.0866 195.982 83.5193Z" fill="white"/>
<path d="M65.9928 120.021C69.5976 116.989 71.7873 112.199 71.213 107.536C70.6388 102.873 67.0822 98.5862 62.4688 97.596C57.8554 96.6058 52.5964 99.3469 51.1952 103.833C50.424 95.184 49.5354 86.1729 44.916 78.8076C40.7332 72.1386 33.4886 67.3666 25.6371 66.5129C17.7855 65.6592 9.51889 68.8836 4.62218 75.0523C-0.274534 81.221 -1.47347 90.1891 1.95606 97.2713C4.48247 102.488 9.13701 106.371 14.0138 109.53C29.5725 119.608 48.873 123.811 67.2378 121.12" fill="#F7C16E"/>
<path d="M12.3864 69.0622C18.8649 74.3149 24.8082 80.1895 30.1304 86.6013C35.4535 93.0064 40.1399 99.9104 44.1237 107.216C46.3505 111.315 48.3509 115.531 50.1159 119.846C50.4758 120.724 49.0438 121.106 48.6879 120.238C45.5616 112.63 41.6937 105.345 37.1398 98.4886C32.608 91.6566 27.4211 85.2783 21.652 79.4433C18.389 76.1446 14.9462 73.027 11.3393 70.1046C10.6 69.5053 11.6532 68.4679 12.3864 69.0622Z" fill="white"/>
<path d="M147.152 121.733H61.1465V33.8929C61.1465 15.2043 76.4207 0 95.1953 0H113.103C131.878 0 147.152 15.2043 147.152 33.8929V121.733Z" fill="#F2F2F2"/>
<path d="M129.244 121.733H61.1466V33.8928C61.1278 26.7318 63.4058 19.7517 67.649 13.9689C67.8055 13.7567 67.9615 13.5472 68.1224 13.34C70.1748 10.6605 72.6172 8.30069 75.369 6.33848C75.5245 6.2259 75.6805 6.11527 75.8389 6.00463C78.1416 4.41845 80.6324 3.12178 83.2548 2.14413C83.4105 2.08537 83.569 2.02651 83.7276 1.97004C86.0993 1.12755 88.5578 0.55044 91.0577 0.24938C91.2127 0.228305 91.3718 0.211814 91.531 0.195323C93.9672 -0.0639683 96.4242 -0.0639683 98.8604 0.195323C99.0191 0.211814 99.1782 0.228303 99.335 0.249605C101.834 0.550685 104.292 1.12772 106.663 1.97005C106.822 2.02652 106.98 2.08538 107.137 2.14425C109.727 3.10957 112.188 4.38689 114.466 5.94772C114.625 6.05595 114.783 6.16658 114.939 6.27721C116.481 7.37322 117.93 8.59423 119.271 9.92779C120.346 10.9975 121.347 12.1377 122.269 13.3407C122.429 13.5472 122.585 13.7567 122.742 13.9686C126.985 19.7514 129.263 26.7316 129.244 33.8928V121.733Z" fill="#3D5A80"/>
<path d="M123.707 82.4454C125.789 82.4454 127.477 80.7652 127.477 78.6925C127.477 76.6199 125.789 74.9397 123.707 74.9397C121.625 74.9397 119.937 76.6199 119.937 78.6925C119.937 80.7652 121.625 82.4454 123.707 82.4454Z" fill="#EA5E44"/>
<path d="M140.107 119.102H137.218L135.843 108.01L140.107 108.011L140.107 119.102Z" fill="#FFB8B8"/>
<path d="M135.154 118.28H140.726V121.772H131.646C131.646 121.313 131.737 120.859 131.914 120.436C132.09 120.012 132.348 119.627 132.674 119.303C133 118.979 133.386 118.722 133.812 118.546C134.238 118.371 134.694 118.28 135.154 118.28Z" fill="#2F2E41"/>
<path d="M154.48 119.102H151.591L150.217 108.01L154.481 108.011L154.48 119.102Z" fill="#FFB8B8"/>
<path d="M149.528 118.28H155.099V121.772H146.02C146.02 121.313 146.111 120.859 146.287 120.436C146.463 120.012 146.722 119.627 147.047 119.303C147.373 118.979 147.76 118.722 148.185 118.546C148.611 118.371 149.067 118.28 149.528 118.28Z" fill="#2F2E41"/>
<path d="M125.615 79.4359C125.407 79.1311 125.269 78.7847 125.21 78.421C125.151 78.0573 125.174 77.6852 125.275 77.3309C125.376 76.9766 125.554 76.6488 125.797 76.3704C126.039 76.0921 126.34 75.87 126.678 75.7199L136.498 48.7776L141.33 51.4026L130.118 77.1496C130.333 77.7314 130.327 78.3718 130.1 78.9494C129.873 79.527 129.441 80.0017 128.886 80.2835C128.331 80.5653 127.692 80.6347 127.089 80.4785C126.486 80.3223 125.962 79.9513 125.615 79.4359Z" fill="#FFB8B8"/>
<path d="M153.005 84.4985C152.684 84.3153 152.407 84.0642 152.194 83.763C151.981 83.4618 151.837 83.1177 151.772 82.7551C151.707 82.3924 151.722 82.02 151.818 81.6641C151.913 81.3081 152.085 80.9773 152.323 80.6948L149.281 52.1945L154.78 52.4445L156.044 80.4784C156.494 80.9072 156.771 81.4854 156.821 82.1036C156.872 82.7217 156.693 83.3368 156.318 83.8324C155.944 84.3279 155.399 84.6694 154.789 84.7922C154.178 84.9149 153.543 84.8104 153.005 84.4985Z" fill="#FFB8B8"/>
<path d="M144.232 43.7872C147.428 43.7872 150.019 41.208 150.019 38.0264C150.019 34.8447 147.428 32.2655 144.232 32.2655C141.036 32.2655 138.444 34.8447 138.444 38.0264C138.444 41.208 141.036 43.7872 144.232 43.7872Z" fill="#FFB8B8"/>
<path d="M152.968 78.0166H135.52L135.541 77.8815C135.572 77.6795 138.65 57.607 136.38 51.0402C136.152 50.3949 136.172 49.6885 136.436 49.0569C136.7 48.4254 137.19 47.9135 137.81 47.6196C141.055 46.0984 147.284 44.2253 152.542 48.771C153.316 49.451 153.92 50.3007 154.307 51.2532C154.693 52.2056 154.852 53.2345 154.771 54.2586L152.968 78.0166Z" fill="#EA5E44"/>
<path d="M138.871 60.5734L131.016 58.987L134.698 50.3016C134.918 49.4603 135.465 48.7405 136.217 48.2998C136.97 47.8592 137.868 47.7337 138.714 47.951C139.559 48.1683 140.284 48.7106 140.728 49.459C141.173 50.2073 141.301 51.1006 141.085 51.9429L138.871 60.5734Z" fill="#EA5E44"/>
<path d="M148.931 63.5189L148.459 52.7432C148.101 50.7175 149.266 48.8026 151.058 48.4896C152.85 48.1778 154.6 49.5827 154.959 51.6232L156.734 61.692L148.931 63.5189Z" fill="#EA5E44"/>
<path d="M152.387 76.7266C155.195 87.3698 155.501 100.902 154.743 115.662L150.973 115.193L144.14 87.0469L140.37 115.662L136.129 115.428C134.861 99.9403 133.628 86.6446 135.657 77.8993L152.387 76.7266Z" fill="#2F2E41"/>
<path d="M148.045 42.4785C146.965 43.6233 144.96 43.0087 144.82 41.4448C144.809 41.3233 144.809 41.2011 144.822 41.0799C144.895 40.3871 145.297 39.7581 145.201 39.0267C145.179 38.8446 145.111 38.6711 145.003 38.5226C144.142 37.3758 142.123 39.0356 141.311 37.9974C140.813 37.3608 141.398 36.3586 141.016 35.6471C140.512 34.708 139.018 35.1713 138.081 34.657C137.039 34.0848 137.102 32.4932 137.788 31.5251C138.624 30.3444 140.091 29.7144 141.54 29.6236C142.988 29.5329 144.427 29.9226 145.779 30.4473C147.316 31.0433 148.84 31.8671 149.785 33.2121C150.935 34.8476 151.046 37.0465 150.471 38.959C150.121 40.1224 148.927 41.5436 148.045 42.4785Z" fill="#2F2E41"/>
<path d="M197.927 121.884H23.9609C23.8866 121.884 23.8155 121.854 23.763 121.802C23.7106 121.749 23.6812 121.679 23.6812 121.605C23.6812 121.531 23.7106 121.46 23.763 121.407C23.8155 121.355 23.8866 121.326 23.9609 121.325H197.927C198.001 121.326 198.072 121.355 198.125 121.407C198.177 121.46 198.206 121.531 198.206 121.605C198.206 121.679 198.177 121.749 198.125 121.802C198.072 121.854 198.001 121.884 197.927 121.884Z" fill="#3F3D56"/>
<path d="M110.511 96.2839H79.8793C79.4758 96.2861 79.088 96.1289 78.8009 95.8468C78.5138 95.5647 78.3508 95.1807 78.3477 94.7792V26.7191C78.3508 26.3175 78.5138 25.9336 78.8009 25.6515C79.088 25.3694 79.4758 25.2122 79.8793 25.2144H110.511C110.915 25.2122 111.303 25.3694 111.59 25.6515C111.877 25.9336 112.04 26.3175 112.043 26.7191V94.7792C112.04 95.1807 111.877 95.5647 111.59 95.8468C111.303 96.1289 110.915 96.2861 110.511 96.2839Z" fill="white"/>
<path d="M112.043 47.2366H78.3477V47.7057H112.043V47.2366Z" fill="#CCCCCC"/>
<path d="M112.161 74.0015H78.4655V74.4706H112.161V74.0015Z" fill="#CCCCCC"/>
<path d="M89.4224 25.2145H88.9512V96.5186H89.4224V25.2145Z" fill="#CCCCCC"/>
<path d="M101.204 25.2145H100.733V96.5186H101.204V25.2145Z" fill="#CCCCCC"/>
</g>
<defs>
<clipPath id="clip0_116_692">
<rect width="205" height="122" fill="white"/>
</clipPath>
</defs>
</svg>
