<svg width="190" height="130" viewBox="0 0 190 130" fill="none" xmlns="http://www.w3.org/2000/svg">
<g clip-path="url(#clip0_117_767)">
<path d="M56.2113 20.8127C61.9471 20.8127 66.5968 16.1536 66.5968 10.4064C66.5968 4.65909 61.9471 0 56.2113 0C50.4756 0 45.8259 4.65909 45.8259 10.4064C45.8259 16.1536 50.4756 20.8127 56.2113 20.8127Z" fill="#FF6584"/>
<path d="M74.9531 2.4221C69.9199 1.7404 64.1736 4.46638 62.8691 9.38489C62.5403 8.51037 61.9426 7.76323 61.1623 7.25138C60.3821 6.73954 59.4596 6.4895 58.5282 6.53739C57.5968 6.58528 56.7047 6.92862 55.9808 7.51781C55.2569 8.10699 54.7387 8.91152 54.501 9.81516L55.0772 10.2287C65.8633 12.5659 77.0285 12.5153 87.7931 10.0805C84.292 6.39358 79.9863 3.1038 74.9531 2.4221Z" fill="#F0F0F0"/>
<path d="M53.3676 16.2973C48.3344 15.6156 42.5882 18.3415 41.2836 23.26C40.9549 22.3855 40.3572 21.6384 39.5769 21.1265C38.7966 20.6147 37.8741 20.3647 36.9427 20.4125C36.0113 20.4604 35.1193 20.8038 34.3954 21.393C33.6715 21.9821 33.1532 22.7867 32.9155 23.6903L33.4918 24.1038C44.2778 26.441 55.4431 26.3905 66.2076 23.9556C62.7065 20.2687 58.4009 16.979 53.3676 16.2973Z" fill="#F0F0F0"/>
<path d="M91.7907 44.1265C90.0871 41.3032 88.0684 38.2888 84.907 37.3669C81.2458 36.2993 77.4848 38.4201 74.2946 40.513C64.7542 46.7719 55.5666 53.5549 46.7739 60.8308L46.7835 60.9404C53.629 60.4673 60.4745 59.9943 67.3199 59.5213C72.2657 59.1795 77.3815 58.7906 81.7523 56.4462C83.4108 55.5566 85.0275 54.3682 86.907 54.2854C89.242 54.1826 91.2779 55.8166 92.8779 57.5238C102.342 67.6225 105.081 83.0658 115.699 91.9383C109.004 75.3927 101.009 59.4053 91.7907 44.1265Z" fill="#F2F2F2"/>
<path d="M149.967 129.782C148.921 128.457 148.493 128.147 147.461 126.811C139.055 115.917 131.153 104.655 123.757 93.0248C118.734 85.1262 113.959 77.0759 109.434 68.8739C107.279 64.9746 105.184 61.0446 103.147 57.0841C101.567 54.0132 100.022 50.9239 98.5128 47.8163C98.081 46.9287 97.6616 46.037 97.2441 45.1433C96.2606 43.0416 95.2953 40.9298 94.2588 38.8566C93.0778 36.4938 91.6401 34.0167 89.4713 32.4292C88.4843 31.6771 87.3041 31.222 86.0685 31.1172C84.303 31.0029 82.6739 31.7334 81.1426 32.5312C69.9385 38.3853 59.4493 45.7248 49.962 54.0765C40.4503 62.4468 31.9484 71.9033 24.6296 82.2532C24.4057 82.5736 23.8762 82.2675 24.1022 81.9451C24.9921 80.6841 25.8997 79.4367 26.8249 78.2029C38.3288 62.8721 52.4344 49.6884 68.4968 39.2545C71.1991 37.4997 73.9523 35.8272 76.7563 34.237C78.1695 33.4351 79.5889 32.6434 81.0326 31.9007C82.4479 31.1723 83.9507 30.5173 85.5676 30.4928C91.0698 30.4071 93.9187 36.6509 95.8756 40.8522C96.4906 42.1744 97.1131 43.4926 97.743 44.8066C100.123 49.7956 102.596 54.7389 105.159 59.6367C106.742 62.6607 108.358 65.667 110.01 68.6556C115.15 77.9621 120.613 87.0803 126.399 96.01C134.063 107.839 141.667 118.288 150.399 129.349C150.639 129.655 150.21 130.092 149.967 129.782Z" fill="#E4E4E4"/>
<path d="M49.4182 50.9933C49.0985 50.6363 48.7809 50.2792 48.4591 49.9221C45.9218 47.1103 43.1993 44.3312 39.715 42.7193C38.0537 41.9264 36.2401 41.5052 34.4001 41.4848C32.4982 41.4909 30.639 41.9908 28.8816 42.6907C28.0508 43.0233 27.2382 43.4008 26.438 43.8027C25.5236 44.2639 24.6256 44.7556 23.7317 45.2515C22.0537 46.1819 20.3974 47.1532 18.763 48.1653C15.5109 50.1792 12.3606 52.3468 9.31223 54.6682C7.73196 55.8721 6.18431 57.1154 4.66928 58.3982C3.26013 59.5898 1.87949 60.8134 0.527357 62.069C0.23821 62.3363 -0.193513 61.9037 0.095625 61.6364C0.451988 61.3038 0.812421 60.9732 1.17286 60.6468C2.19104 59.7245 3.22552 58.8199 4.27632 57.933C6.19246 56.3128 8.15822 54.7553 10.1736 53.2603C13.3076 50.9342 16.5494 48.7658 19.8992 46.7553C21.5731 45.7514 23.2701 44.7896 24.9901 43.8701C25.5094 43.5926 26.0348 43.3212 26.5663 43.0641C27.7722 42.4546 29.0252 41.9435 30.3132 41.5358C32.1376 40.9444 34.0678 40.7544 35.9722 40.9787C37.8109 41.2467 39.5825 41.8608 41.1934 42.7886C44.6145 44.7046 47.2678 47.6674 49.8499 50.5587C50.1107 50.8526 49.6809 51.2872 49.4182 50.9933Z" fill="#E4E4E4"/>
<path d="M119.514 80.1306L127.712 77.1262L131.782 75.6346C133.108 75.1487 134.43 74.5957 135.801 74.2478C137.012 73.9402 138.243 73.8899 139.438 74.2942C140.492 74.6851 141.456 75.2844 142.275 76.0563C143.11 76.8276 143.888 77.6598 144.601 78.5462C145.488 79.6133 146.361 80.6916 147.238 81.7663C150.857 86.2017 154.453 90.6564 158.025 95.1303C161.597 99.6042 165.145 104.097 168.67 108.609C172.202 113.132 175.711 117.674 179.195 122.234C179.622 122.793 180.049 123.352 180.475 123.911C180.71 124.22 181.241 123.916 181.002 123.602C177.492 118.996 173.958 114.408 170.399 109.839C166.831 105.259 163.239 100.699 159.622 96.158C156.005 91.6172 152.363 87.096 148.698 82.5945C147.784 81.4731 146.87 80.3529 145.953 79.2339C145.18 78.29 144.416 77.3359 143.568 76.4574C142.012 74.8447 140.068 73.4196 137.741 73.3809C136.373 73.3582 135.048 73.7933 133.777 74.2541C132.407 74.7509 131.039 75.257 129.671 75.7586L121.416 78.784L119.352 79.5404C118.986 79.6746 119.144 80.2664 119.514 80.1306Z" fill="#E4E4E4"/>
<path d="M38.6362 46.2573C34.4703 44.1119 29.1353 44.5321 25.3071 47.2124C32.6091 48.4747 39.8311 50.1637 46.9363 52.2708C43.9858 50.5382 41.6778 47.8237 38.6362 46.2573Z" fill="#F2F2F2"/>
<path d="M25.2661 47.205L24.4641 47.8582C24.7354 47.6296 25.0174 47.4153 25.3071 47.2124C25.2934 47.2101 25.2798 47.2074 25.2661 47.205Z" fill="#F2F2F2"/>
<path d="M141.966 80.1606C141.159 79.1764 140.286 78.1458 139.079 77.746L137.953 77.7906C146.531 92.9792 158.116 106.251 171.998 116.791C161.987 104.581 151.977 92.3708 141.966 80.1606Z" fill="#F2F2F2"/>
<path d="M58.0461 118.606C58.5056 114.904 60.7953 111.256 64.3188 110.051C62.9292 113.862 62.9295 118.042 64.3197 121.852C64.8611 123.32 65.6158 124.895 65.1065 126.374C64.7896 127.295 64.0144 127.999 63.1479 128.439C62.2814 128.879 61.3197 129.089 60.37 129.295L60.1831 129.45C58.6756 126.038 57.5866 122.308 58.0461 118.606Z" fill="#3D5A80"/>
<path d="M64.3538 110.121C62.3018 112.425 61.0265 115.318 60.7089 118.389C60.6288 119.049 60.653 119.718 60.7807 120.37C60.9256 121.002 61.2366 121.583 61.6814 122.053C62.0873 122.5 62.5542 122.91 62.8446 123.448C62.9892 123.726 63.0736 124.031 63.0923 124.344C63.111 124.656 63.0635 124.969 62.953 125.262C62.6965 125.999 62.1911 126.6 61.6765 127.17C61.105 127.803 60.5015 128.452 60.2586 129.291C60.2292 129.393 60.0734 129.341 60.1028 129.24C60.5254 127.779 61.9402 126.95 62.6149 125.634C62.9297 125.021 63.0619 124.308 62.7667 123.66C62.5086 123.094 62.0275 122.67 61.6126 122.221C61.172 121.769 60.8486 121.215 60.6708 120.609C60.5104 119.965 60.4605 119.298 60.5232 118.638C60.6408 117.148 60.9914 115.687 61.5621 114.306C62.2047 112.727 63.1122 111.27 64.2452 109.998C64.3153 109.919 64.4235 110.043 64.3538 110.121Z" fill="white"/>
<path d="M60.753 117.394C60.246 117.271 59.7992 116.971 59.4925 116.548C59.1857 116.125 59.0391 115.607 59.0786 115.085C59.087 114.98 59.2509 114.988 59.2425 115.094C59.2048 115.579 59.3415 116.062 59.6279 116.455C59.9143 116.848 60.3316 117.126 60.8045 117.238C60.9072 117.263 60.8551 117.419 60.753 117.394Z" fill="white"/>
<path d="M61.4458 121.854C62.3615 121.306 63.0376 120.432 63.3391 119.407C63.3689 119.306 63.5247 119.357 63.4949 119.459C63.1792 120.525 62.4738 121.433 61.5196 122.001C61.4286 122.055 61.3553 121.908 61.4458 121.854Z" fill="white"/>
<path d="M62.357 112.883C62.5432 112.972 62.7486 113.013 62.9545 113.002C63.1605 112.992 63.3606 112.93 63.537 112.823C63.6272 112.768 63.7004 112.915 63.6108 112.97C63.4154 113.087 63.1943 113.155 62.9667 113.167C62.7392 113.179 62.5122 113.135 62.3055 113.039C62.2853 113.032 62.2686 113.017 62.2589 112.998C62.2492 112.978 62.2472 112.956 62.2533 112.935C62.2603 112.915 62.275 112.898 62.2944 112.888C62.3138 112.878 62.3363 112.876 62.357 112.883Z" fill="white"/>
<path d="M75.059 116.663C75.0036 116.7 74.9482 116.736 74.8928 116.773C74.1507 117.262 73.4495 117.811 72.7961 118.413C72.7449 118.459 72.6936 118.506 72.6438 118.553C71.085 120.022 69.812 121.769 68.8894 123.703C68.523 124.473 68.2156 125.27 67.9698 126.087C67.6305 127.215 67.3522 128.466 66.6805 129.388C66.6115 129.486 66.5365 129.578 66.4561 129.666H60.3862C60.3724 129.659 60.3585 129.653 60.3446 129.647L60.1023 129.658C60.112 129.615 60.1231 129.57 60.1328 129.527C60.1383 129.502 60.1452 129.477 60.1508 129.452C60.1549 129.436 60.1591 129.419 60.1619 129.404C60.1632 129.398 60.1646 129.393 60.166 129.388C60.1688 129.373 60.173 129.359 60.1757 129.345C60.2367 129.097 60.2994 128.849 60.3641 128.6C60.3641 128.599 60.3641 128.599 60.3654 128.597C60.8398 126.7 61.5371 124.866 62.4427 123.133C62.4705 123.081 62.4981 123.029 62.5286 122.977C62.948 122.21 63.4292 121.479 63.9675 120.79C64.2635 120.414 64.5783 120.054 64.9106 119.709C65.7711 118.822 66.7656 118.075 67.8576 117.497C70.0347 116.346 72.5551 115.904 74.8818 116.608C74.9413 116.626 74.9995 116.644 75.059 116.663Z" fill="#3D5A80"/>
<path d="M75.0454 116.741C72.0228 117.342 69.2662 118.883 67.1671 121.144C66.7066 121.622 66.3243 122.171 66.0342 122.768C65.7704 123.36 65.6695 124.012 65.7421 124.656C65.7977 125.257 65.9241 125.866 65.8327 126.471C65.7814 126.78 65.6654 127.075 65.4925 127.335C65.3196 127.596 65.0936 127.818 64.8294 127.985C64.1818 128.419 63.4173 128.593 62.6637 128.738C61.8271 128.899 60.9555 129.053 60.2572 129.576C60.1726 129.64 60.0793 129.504 60.1637 129.441C61.3786 128.53 63.0067 128.721 64.3358 128.078C64.9559 127.778 65.4896 127.289 65.6432 126.593C65.7776 125.985 65.6477 125.357 65.5862 124.748C65.5063 124.121 65.5808 123.484 65.8032 122.892C66.062 122.282 66.4226 121.719 66.8696 121.23C67.8584 120.112 69.0166 119.156 70.3017 118.398C71.7635 117.525 73.3636 116.909 75.0328 116.577C75.1361 116.556 75.148 116.72 75.0454 116.741Z" fill="white"/>
<path d="M67.8002 120.376C67.4695 119.971 67.293 119.462 67.3022 118.94C67.3115 118.417 67.5058 117.914 67.8506 117.522C67.9207 117.443 68.0467 117.548 67.9766 117.627C67.6548 117.992 67.4738 118.46 67.4662 118.947C67.4586 119.434 67.6249 119.907 67.9351 120.282C68.0024 120.364 67.8672 120.457 67.8002 120.376Z" fill="white"/>
<path d="M65.6738 124.354C66.7342 124.469 67.799 124.18 68.6557 123.543C68.7405 123.48 68.8338 123.615 68.7491 123.678C67.8564 124.339 66.7477 124.638 65.6445 124.516C65.5394 124.504 65.5693 124.343 65.6738 124.354Z" fill="white"/>
<path d="M71.7915 117.741C71.887 117.924 72.0263 118.081 72.197 118.197C72.3678 118.313 72.5646 118.384 72.7697 118.405C72.875 118.416 72.845 118.577 72.7404 118.567C72.5139 118.543 72.2966 118.464 72.1077 118.336C71.9188 118.208 71.7639 118.036 71.6566 117.835C71.6449 117.817 71.6406 117.795 71.6444 117.774C71.6483 117.752 71.6601 117.733 71.6774 117.721C71.6953 117.708 71.7173 117.703 71.7387 117.707C71.7601 117.711 71.7791 117.723 71.7915 117.741Z" fill="white"/>
<path d="M102.179 98.4898C99.2013 91.891 99.311 83.5268 103.932 77.9585C105.477 85.6799 109.699 92.6045 115.85 97.5072C118.229 99.3893 121.07 101.235 121.72 104.201C122.124 106.047 121.551 107.999 120.56 109.607C119.569 111.215 118.188 112.538 116.822 113.841L116.669 114.287C110.727 110.165 105.156 105.089 102.179 98.4898Z" fill="#3D5A80"/>
<path d="M104.06 78.039C102.987 83.9359 103.796 90.0217 106.371 95.4319C106.905 96.6064 107.62 97.6893 108.491 98.6407C109.368 99.54 110.471 100.187 111.682 100.516C112.806 100.844 113.994 101.05 115.018 101.647C115.538 101.96 115.986 102.38 116.333 102.879C116.679 103.378 116.917 103.945 117.029 104.542C117.349 106.023 117.118 107.531 116.841 108.997C116.534 110.625 116.189 112.312 116.634 113.949C116.688 114.147 116.378 114.219 116.324 114.021C115.549 111.173 117.056 108.365 116.845 105.501C116.747 104.165 116.246 102.851 115.103 102.077C114.103 101.4 112.879 101.187 111.738 100.864C110.551 100.561 109.456 99.9715 108.549 99.1469C107.633 98.243 106.878 97.1895 106.315 96.0316C105.005 93.4449 104.11 90.6681 103.662 87.8028C103.132 84.5354 103.164 81.2014 103.756 77.9448C103.793 77.7433 104.097 77.8388 104.06 78.039Z" fill="white"/>
<path d="M105.44 93.7387C104.475 94.0485 103.432 94.0046 102.497 93.6149C101.562 93.2252 100.795 92.5151 100.334 91.6114C100.242 91.4282 100.521 91.2754 100.614 91.4588C101.042 92.3011 101.756 92.9625 102.628 93.3236C103.499 93.6847 104.471 93.7217 105.367 93.4279C105.562 93.3643 105.634 93.6755 105.44 93.7387Z" fill="white"/>
<path d="M111.091 100.424C112.054 98.588 112.292 96.4552 111.756 94.4512C111.703 94.2527 112.013 94.1804 112.067 94.3786C112.62 96.4651 112.368 98.684 111.361 100.593C111.265 100.774 110.995 100.605 111.091 100.424Z" fill="white"/>
<path d="M103.541 84.6391C103.939 84.5972 104.321 84.4568 104.652 84.2307C104.982 84.0045 105.252 83.6996 105.436 83.3433C105.529 83.1603 105.799 83.33 105.706 83.5118C105.501 83.9044 105.203 84.2408 104.838 84.4915C104.474 84.7422 104.053 84.8996 103.614 84.9499C103.573 84.9582 103.53 84.9504 103.495 84.9283C103.459 84.9062 103.433 84.8713 103.422 84.8308C103.413 84.7896 103.42 84.7464 103.443 84.7105C103.465 84.6746 103.5 84.6489 103.541 84.6391Z" fill="white"/>
<path d="M128.401 78.0231C128.346 78.1391 128.291 78.255 128.237 78.3733C127.501 79.9357 126.894 81.5553 126.42 83.2163C126.381 83.3441 126.344 83.4743 126.309 83.603C125.21 87.6168 124.864 91.8003 125.289 95.9406C125.46 97.5879 125.756 99.2199 126.174 100.822C126.751 103.035 127.552 105.389 127.371 107.599C127.355 107.829 127.324 108.059 127.28 108.286L117.224 114.44C117.194 114.443 117.166 114.447 117.136 114.45L116.746 114.714C116.718 114.633 116.692 114.548 116.664 114.467C116.648 114.42 116.635 114.372 116.618 114.325C116.608 114.293 116.599 114.261 116.588 114.233C116.584 114.222 116.581 114.212 116.579 114.204C116.568 114.175 116.561 114.148 116.552 114.122C116.402 113.649 116.255 113.174 116.111 112.697C116.11 112.695 116.11 112.695 116.111 112.691C115.025 109.054 114.232 105.293 114.034 101.532C114.028 101.419 114.02 101.303 114.019 101.187C113.939 99.4915 113.998 97.7919 114.194 96.1056C114.305 95.1825 114.462 94.2657 114.665 93.3585C115.194 91.0157 116.088 88.7708 117.314 86.7062C119.757 82.5908 123.487 79.3044 128.052 78.1109C128.169 78.0804 128.283 78.0513 128.401 78.0231Z" fill="#3D5A80"/>
<path d="M128.457 78.1648C124.057 82.226 121.046 87.573 119.851 93.4464C119.572 94.7063 119.492 96.0024 119.616 97.2871C119.776 98.5346 120.267 99.7164 121.037 100.71C121.737 101.65 122.562 102.531 123.021 103.625C123.248 104.189 123.353 104.795 123.33 105.402C123.307 106.009 123.156 106.605 122.887 107.15C122.252 108.525 121.162 109.59 120.06 110.594C118.837 111.708 117.548 112.847 116.92 114.422C116.844 114.613 116.553 114.484 116.629 114.293C117.721 111.552 120.611 110.218 122.164 107.805C122.888 106.679 123.278 105.327 122.83 104.02C122.439 102.876 121.589 101.967 120.873 101.021C120.107 100.063 119.587 98.9321 119.358 97.7265C119.17 96.4523 119.2 95.1552 119.446 93.8909C119.955 91.0358 120.908 88.2785 122.272 85.7202C123.812 82.7918 125.841 80.1489 128.27 77.906C128.421 77.7672 128.606 78.027 128.457 78.1648Z" fill="white"/>
<path d="M120.125 91.5325C119.169 91.1979 118.362 90.5337 117.85 89.6583C117.337 88.783 117.152 87.7535 117.327 86.7539C117.363 86.5517 117.678 86.5985 117.642 86.8009C117.477 87.7314 117.65 88.6903 118.129 89.5045C118.608 90.3186 119.362 90.9344 120.254 91.2407C120.448 91.3074 120.318 91.5989 120.125 91.5325Z" fill="white"/>
<path d="M120.62 100.279C122.493 99.3949 123.964 97.8354 124.74 95.9121C124.817 95.7215 125.108 95.8509 125.032 96.0413C124.22 98.0412 122.686 99.6609 120.735 100.577C120.549 100.664 120.435 100.366 120.62 100.279Z" fill="white"/>
<path d="M124.077 83.1216C124.42 83.3283 124.809 83.4464 125.209 83.4653C125.608 83.4842 126.007 83.4032 126.368 83.2297C126.552 83.1402 126.666 83.4385 126.482 83.5274C126.083 83.7173 125.643 83.8061 125.201 83.7863C124.759 83.7664 124.329 83.6384 123.948 83.4135C123.91 83.3953 123.881 83.3634 123.866 83.3243C123.851 83.2852 123.851 83.2418 123.867 83.203C123.884 83.1644 123.916 83.1342 123.955 83.119C123.994 83.1038 124.038 83.1047 124.077 83.1216Z" fill="white"/>
<path d="M147.741 106.131L159.051 97.5262L164.564 103.051L146.138 115.685L147.741 106.131Z" fill="#3F3D56"/>
<path d="M137.191 129.824H98.5002L99.8572 125.418C108.268 122.367 103.544 115.809 111.544 111.801C131.112 101.997 138.688 72.7415 135.822 61.1766L148.646 60.6333C148.646 60.6333 166.355 111.027 137.191 129.824Z" fill="#3F3D56"/>
<path d="M170.223 109.113C169.067 110.132 167.588 110.706 166.05 110.735C164.511 110.764 163.012 110.245 161.819 109.271L161.794 109.25L161.793 109.218C161.779 108.678 161.695 108.142 161.543 107.624C161.536 107.997 161.481 108.368 161.382 108.727L161.349 108.848L161.262 108.758C161.187 108.681 161.115 108.602 161.046 108.524C160.645 108.068 160.309 107.558 160.047 107.009C158.796 104.43 156.984 102.166 154.743 100.383C154.343 100.057 153.971 99.6984 153.63 99.3104C152.191 97.6703 151.382 95.5705 151.348 93.3871C151.313 91.2037 152.055 89.0793 153.441 87.3943C154.828 85.7093 156.767 84.5736 158.912 84.1908C161.058 83.808 163.269 84.2029 165.151 85.3049L165.208 85.3385L165.178 85.398C164.961 85.8511 164.673 86.267 164.326 86.6304C164.803 86.3721 165.244 86.0525 165.639 85.6797L165.681 85.6404L165.728 85.673C166.346 86.1014 166.909 86.6039 167.406 87.1694L167.459 87.2308C167.838 87.665 168.304 88.0142 168.826 88.2559C169.349 88.4975 169.916 88.6261 170.492 88.6332C171.431 88.649 172.355 88.8685 173.201 89.2764C174.047 89.6844 174.795 90.2712 175.394 90.9965C175.992 91.7218 176.426 92.5683 176.667 93.4778C176.907 94.3873 176.948 95.3383 176.787 96.2653L176.78 96.3083L176.738 96.321C176.008 96.5721 175.235 96.6688 174.466 96.6051C175.108 96.8852 175.792 97.0569 176.49 97.113L176.58 97.1202L176.551 97.2062C176.188 98.3002 175.541 99.2778 174.676 100.039L174.652 100.061C174.643 100.068 174.634 100.076 174.625 100.084C173.981 100.639 173.454 101.318 173.076 102.081C172.697 102.843 172.474 103.674 172.42 104.524C172.377 105.397 172.161 106.253 171.783 107.041C171.406 107.829 170.875 108.534 170.223 109.113Z" fill="#EA5E44"/>
<path opacity="0.15" d="M171.406 107.019C171.394 107.254 171.37 107.488 171.333 107.72C171.967 106.745 172.331 105.619 172.39 104.457C172.398 104.279 172.417 104.102 172.442 103.925C171.826 104.845 171.469 105.914 171.406 107.019Z" fill="black"/>
<path opacity="0.15" d="M173.452 99.1002C173.969 99.3243 174.513 99.4784 175.07 99.5584C175.284 99.3315 175.482 99.0894 175.662 98.834C174.951 99.0723 174.199 99.1629 173.452 99.1002Z" fill="black"/>
<path opacity="0.15" d="M175.836 96.9607C175.893 97.5239 175.878 98.0921 175.789 98.6512C176.098 98.1811 176.344 97.6728 176.521 97.139L176.55 97.053L176.46 97.0458C176.25 97.0279 176.042 96.9995 175.836 96.9607Z" fill="black"/>
<path opacity="0.15" d="M175.234 90.7771C174.635 90.0966 173.902 89.5486 173.08 89.1679C172.259 88.7872 171.367 88.5822 170.462 88.566C169.886 88.5589 169.319 88.4303 168.796 88.1887C168.274 87.9471 167.808 87.5978 167.429 87.1637L167.376 87.1022C166.879 86.5367 166.316 86.0342 165.698 85.6058L165.651 85.5732L165.609 85.6125C165.214 85.9854 164.773 86.3049 164.296 86.5632C164.643 86.1998 164.93 85.7839 165.148 85.3308L165.178 85.2713L165.121 85.2377C163.874 84.5063 162.471 84.0806 161.029 83.9956C159.586 83.9105 158.144 84.1684 156.819 84.7482C155.495 85.3281 154.326 86.2134 153.408 87.332C152.491 88.4506 151.85 89.7708 151.538 91.1848C152.138 90.1283 152.942 89.2016 153.902 88.4585C154.862 87.7154 155.96 87.1707 157.132 86.8558C158.304 86.541 159.527 86.4624 160.729 86.6244C161.932 86.7865 163.09 87.1861 164.137 87.8001L164.195 87.8337L164.165 87.8931C163.947 88.3463 163.659 88.7622 163.312 89.1256C163.789 88.8673 164.231 88.5477 164.625 88.1749L164.667 88.1355L164.714 88.1681C165.332 88.5965 165.896 89.0991 166.392 89.6646L166.445 89.726C166.824 90.1601 167.29 90.5094 167.813 90.751C168.335 90.9927 168.903 91.1212 169.478 91.1284C170.983 91.1538 172.432 91.7015 173.579 92.678C174.726 93.6545 175.499 94.9994 175.767 96.4833C176.085 96.4262 176.399 96.3496 176.708 96.2538L176.75 96.2411L176.757 96.1981C176.926 95.2379 176.877 94.2519 176.613 93.3134C176.349 92.3749 175.878 91.508 175.234 90.7771Z" fill="black"/>
<path d="M188.923 63.9506C188.923 68.9159 187.165 73.7201 183.962 77.5091C180.76 81.2981 176.32 83.8264 171.432 84.6443L171.329 84.6612L171.249 84.5944C169.917 83.4809 168.446 82.5452 166.873 81.8109C167.757 82.6226 168.535 83.5421 169.191 84.548L169.413 84.8838L169.012 84.9031C168.665 84.92 168.32 84.9285 167.988 84.9285C166.033 84.9302 164.087 84.6599 162.207 84.1253C153.664 81.6898 144.49 81.2733 134.94 82.8874C133.302 83.1631 131.645 83.3017 129.984 83.3016C113.701 83.3016 100.454 70.0248 100.454 53.7057C100.445 47.4836 102.397 41.4175 106.03 36.3721C109.664 31.3266 114.795 27.5593 120.691 25.607L120.894 25.5397L120.974 25.7382C121.604 27.2297 121.996 28.8112 122.134 30.4248C122.526 28.7196 122.694 26.9704 122.633 25.2217L122.627 25.037L122.806 24.992C125.154 24.4057 127.565 24.1094 129.984 24.1097L130.246 24.1108C132.099 24.1163 133.933 23.7305 135.627 22.9783C137.321 22.2262 138.839 21.1248 140.08 19.7458C142.114 17.5048 144.61 15.7321 147.393 14.5497C150.177 13.3673 153.184 12.8032 156.206 12.8962C159.228 12.9892 162.194 13.7371 164.901 15.0885C167.607 16.4399 169.989 18.3627 171.882 20.7246L171.971 20.834L171.912 20.9621C170.689 23.6635 169.357 25.6316 167.766 27.0708C169.807 26.1113 171.676 24.8195 173.295 23.2479L173.504 23.0447L173.651 23.297C175.518 26.5044 176.5 30.1511 176.499 33.864L176.499 33.9698C176.498 34.0071 176.498 34.0448 176.498 34.0821C176.498 39.7618 178.69 45.1449 182.522 48.868C184.537 50.8283 186.142 53.1723 187.241 55.7623C188.34 58.3522 188.912 61.1361 188.923 63.9506Z" fill="#EA5E44"/>
<g opacity="0.15">
<path d="M163.328 14.3755C162.606 15.5759 161.718 16.6676 160.691 17.618C162.162 16.9256 163.546 16.0591 164.812 15.0369C164.326 14.7972 163.832 14.5767 163.328 14.3755Z" fill="black"/>
<path d="M175.447 39.4152C176.585 40.5223 177.595 41.7551 178.457 43.0899C177.16 40.2652 176.492 37.1915 176.498 34.0822C176.498 34.0448 176.498 34.0071 176.499 33.9698L176.499 33.864C176.5 30.1511 175.517 26.5044 173.651 23.297L173.504 23.0447L173.295 23.2479C172.141 24.3658 170.859 25.3437 169.477 26.1613C169.833 31.2686 171.961 36.0287 175.447 39.4152Z" fill="black"/>
<path d="M169.423 24.4112L169.423 24.517C169.423 24.5543 169.423 24.592 169.423 24.6293C169.423 24.8353 169.427 25.0407 169.432 25.2457C170.418 23.9167 171.25 22.4796 171.912 20.9621L171.971 20.834L171.882 20.7246C170.778 19.3474 169.505 18.1143 168.095 17.0542C168.973 19.4072 169.423 21.899 169.423 24.4112Z" fill="black"/>
<path d="M182.522 48.868C181.515 47.8863 180.62 46.7953 179.854 45.6151C181.226 48.5442 181.902 51.7519 181.83 54.9869C181.758 58.2218 180.94 61.3962 179.439 64.2611C177.938 67.126 175.795 69.6037 173.178 71.5001C170.562 73.3964 167.542 74.6599 164.357 75.1915L164.254 75.2084L164.174 75.1416C162.841 74.0281 161.37 73.0924 159.798 72.3581C160.681 73.1698 161.46 74.0893 162.115 75.0952L162.338 75.431L161.936 75.4503C161.59 75.4672 161.245 75.4757 160.912 75.4757C158.958 75.4774 157.012 75.2071 155.131 74.6725C146.588 72.237 137.414 71.8205 127.865 73.4346C126.227 73.7103 124.57 73.8489 122.909 73.8488C115.671 73.8544 108.686 71.1851 103.289 66.3519C105.683 71.4182 109.462 75.7001 114.187 78.7004C118.913 81.7006 124.39 83.2962 129.984 83.3016C131.645 83.3017 133.302 83.1631 134.94 82.8874C144.49 81.2733 153.664 81.6898 162.207 84.1253C164.087 84.6599 166.033 84.9302 167.988 84.9285C168.32 84.9285 168.665 84.92 169.012 84.9031L169.413 84.8838L169.19 84.548C168.535 83.5421 167.757 82.6226 166.873 81.8109C168.446 82.5452 169.917 83.4809 171.249 84.5944L171.329 84.6612L171.432 84.6443C175.257 84.0067 178.83 82.3166 181.753 79.7627C184.675 77.2087 186.831 73.8914 187.981 70.1809C189.132 66.4703 189.23 62.5125 188.266 58.7491C187.302 54.9857 185.313 51.5648 182.522 48.868Z" fill="black"/>
</g>
<path d="M83.9942 58.6418C82.8673 57.4251 82.2829 55.5994 82.8821 54.0519C83.7796 55.617 85.2006 56.8137 86.8938 57.43C87.5477 57.6654 88.2994 57.8589 88.6563 58.4562C88.8627 58.8424 88.9132 59.2933 88.7975 59.7157C88.6809 60.1334 88.5114 60.5343 88.2931 60.9088L88.2922 61.0169C86.7011 60.5549 85.1211 59.8585 83.9942 58.6418Z" fill="#EA5E44"/>
<path d="M139.968 93.9322C138.841 92.7156 138.257 90.8898 138.856 89.3423C139.753 90.9075 141.174 92.1041 142.868 92.7205C143.521 92.9558 144.273 93.1493 144.63 93.7466C144.836 94.1328 144.887 94.5837 144.771 95.0062C144.655 95.4238 144.485 95.8248 144.267 96.1993L144.266 96.3074C142.675 95.8454 141.095 95.1489 139.968 93.9322Z" fill="#EA5E44"/>
<path d="M166.362 116.709C165.574 115.249 165.465 113.335 166.431 111.987C166.909 113.727 167.986 115.242 169.472 116.263C170.046 116.655 170.725 117.031 170.922 117.698C171.025 118.124 170.961 118.573 170.744 118.953C170.527 119.328 170.262 119.674 169.958 119.982L169.93 120.086C168.505 119.24 167.149 118.17 166.362 116.709Z" fill="#EA5E44"/>
<path d="M185.386 88.5084C184.599 87.0479 184.489 85.1337 185.456 83.7857C185.934 85.5261 187.011 87.0409 188.496 88.0622C189.071 88.454 189.75 88.8299 189.947 89.4976C190.05 89.9233 189.986 90.3725 189.769 90.7525C189.552 91.1276 189.287 91.4733 188.982 91.7812L188.955 91.8856C187.529 91.0394 186.174 89.969 185.386 88.5084Z" fill="#EA5E44"/>
<path d="M61.0178 99.3792C60.2306 97.9186 60.1207 96.0044 61.0873 94.6564C61.5653 96.3968 62.6424 97.9117 64.1278 98.933C64.7021 99.3248 65.3815 99.7006 65.578 100.368C65.6813 100.794 65.6177 101.243 65.4001 101.623C65.1829 101.998 64.9187 102.344 64.6138 102.652L64.586 102.756C63.1608 101.91 61.805 100.84 61.0178 99.3792Z" fill="#E6E6E6"/>
<path d="M132.104 113.366C132.788 107.857 136.195 102.429 141.438 100.637C139.37 106.307 139.371 112.527 141.439 118.196C142.245 120.38 143.368 122.725 142.61 124.925C142.138 126.295 140.985 127.343 139.696 127.998C138.406 128.653 136.975 128.965 135.562 129.271L135.284 129.501C133.041 124.426 131.42 118.874 132.104 113.366Z" fill="#3D5A80"/>
<path d="M141.49 100.741C138.437 104.169 136.539 108.474 136.066 113.044C135.947 114.026 135.983 115.021 136.173 115.992C136.389 116.931 136.851 117.796 137.513 118.496C138.117 119.161 138.812 119.771 139.244 120.572C139.459 120.985 139.585 121.439 139.613 121.904C139.641 122.369 139.57 122.835 139.405 123.27C139.024 124.367 138.272 125.261 137.506 126.11C136.656 127.052 135.758 128.017 135.396 129.266C135.352 129.417 135.121 129.34 135.164 129.189C135.793 127.016 137.898 125.782 138.902 123.824C139.371 122.911 139.567 121.851 139.128 120.887C138.744 120.044 138.028 119.414 137.411 118.746C136.755 118.073 136.274 117.249 136.009 116.346C135.771 115.388 135.697 114.396 135.79 113.414C135.965 111.197 136.487 109.022 137.336 106.968C138.292 104.619 139.642 102.451 141.328 100.557C141.433 100.44 141.594 100.624 141.49 100.741Z" fill="white"/>
<path d="M136.132 111.563C135.377 111.38 134.713 110.934 134.256 110.304C133.8 109.675 133.582 108.903 133.64 108.128C133.653 107.971 133.897 107.983 133.884 108.14C133.828 108.862 134.032 109.581 134.458 110.166C134.884 110.751 135.505 111.164 136.208 111.331C136.361 111.368 136.284 111.6 136.132 111.563Z" fill="white"/>
<path d="M137.163 118.199C138.525 117.384 139.531 116.084 139.98 114.558C140.024 114.407 140.256 114.484 140.212 114.635C139.742 116.222 138.692 117.572 137.272 118.418C137.137 118.498 137.028 118.279 137.163 118.199Z" fill="white"/>
<path d="M138.519 104.851C138.796 104.983 139.101 105.044 139.408 105.028C139.714 105.012 140.012 104.921 140.274 104.761C140.409 104.679 140.518 104.898 140.384 104.98C140.093 105.155 139.764 105.255 139.426 105.273C139.087 105.291 138.75 105.226 138.442 105.083C138.412 105.072 138.387 105.05 138.373 105.021C138.358 104.992 138.355 104.959 138.364 104.928C138.375 104.898 138.397 104.872 138.425 104.858C138.454 104.843 138.488 104.841 138.519 104.851Z" fill="white"/>
<path d="M157.419 110.476C157.337 110.529 157.254 110.583 157.172 110.639C156.068 111.366 155.024 112.183 154.052 113.08C153.976 113.148 153.9 113.218 153.825 113.288C151.506 115.474 149.612 118.072 148.239 120.951C147.694 122.097 147.236 123.283 146.87 124.498C146.366 126.177 145.951 128.037 144.952 129.411C144.849 129.555 144.738 129.693 144.618 129.824H135.586C135.566 129.813 135.545 129.805 135.524 129.795L135.164 129.811C135.178 129.747 135.195 129.681 135.209 129.617C135.217 129.58 135.228 129.543 135.236 129.506C135.242 129.481 135.248 129.456 135.252 129.433C135.254 129.425 135.256 129.417 135.258 129.411C135.263 129.388 135.269 129.367 135.273 129.347C135.364 128.977 135.457 128.607 135.553 128.238C135.553 128.236 135.553 128.236 135.555 128.234C136.295 125.419 137.276 122.642 138.646 120.102C138.687 120.026 138.729 119.947 138.774 119.871C139.398 118.73 140.114 117.641 140.915 116.617C141.355 116.057 141.824 115.52 142.318 115.008C143.599 113.687 145.079 112.577 146.704 111.717C149.943 110.003 153.693 109.346 157.155 110.393C157.244 110.42 157.331 110.447 157.419 110.476Z" fill="#3D5A80"/>
<path d="M157.399 110.591C152.901 111.486 148.799 113.778 145.676 117.142C144.991 117.854 144.422 118.67 143.99 119.56C143.598 120.44 143.448 121.41 143.556 122.368C143.638 123.263 143.826 124.17 143.691 125.07C143.614 125.529 143.442 125.968 143.184 126.356C142.927 126.744 142.591 127.073 142.198 127.322C141.234 127.967 140.096 128.227 138.975 128.443C137.73 128.682 136.433 128.911 135.394 129.69C135.268 129.784 135.129 129.583 135.255 129.489C137.063 128.133 139.485 128.418 141.463 127.461C142.386 127.014 143.18 126.286 143.409 125.251C143.608 124.347 143.415 123.412 143.324 122.506C143.205 121.573 143.316 120.625 143.647 119.744C144.032 118.836 144.568 117.999 145.233 117.27C146.705 115.606 148.428 114.185 150.34 113.057C152.516 111.758 154.897 110.841 157.38 110.347C157.534 110.316 157.552 110.56 157.399 110.591Z" fill="white"/>
<path d="M146.618 116C146.126 115.398 145.863 114.64 145.877 113.863C145.891 113.085 146.18 112.337 146.693 111.753C146.797 111.635 146.985 111.792 146.881 111.91C146.402 112.453 146.133 113.149 146.121 113.874C146.11 114.598 146.357 115.303 146.819 115.86C146.919 115.982 146.718 116.12 146.618 116Z" fill="white"/>
<path d="M143.454 121.92C145.032 122.091 146.616 121.66 147.891 120.712C148.017 120.618 148.156 120.82 148.03 120.913C146.702 121.897 145.052 122.342 143.41 122.16C143.254 122.143 143.298 121.902 143.454 121.92Z" fill="white"/>
<path d="M152.557 112.08C152.699 112.352 152.906 112.585 153.161 112.758C153.415 112.93 153.707 113.037 154.013 113.068C154.169 113.083 154.125 113.324 153.969 113.308C153.632 113.272 153.309 113.154 153.028 112.965C152.746 112.775 152.516 112.519 152.356 112.219C152.339 112.192 152.332 112.159 152.338 112.128C152.344 112.096 152.361 112.068 152.387 112.049C152.414 112.03 152.447 112.023 152.479 112.029C152.51 112.035 152.539 112.053 152.557 112.08Z" fill="white"/>
<path d="M86.2584 114.121L78.762 108.418L75.1082 112.079L87.3204 120.453L86.2584 114.121Z" fill="#3F3D56"/>
<path d="M93.25 129.824H118.893L117.994 126.904C112.42 124.882 115.551 120.536 110.248 117.879C97.2791 111.381 92.2582 91.9916 94.1573 84.3267L85.6583 83.9667C85.6583 83.9667 73.9211 117.366 93.25 129.824Z" fill="#3F3D56"/>
<path d="M69.9018 113.056C69.866 112.493 69.7182 111.942 69.4672 111.437C69.2162 110.931 68.867 110.481 68.4401 110.113C68.4343 110.108 68.4285 110.103 68.4227 110.098L68.4063 110.083C67.8335 109.579 67.4046 108.931 67.1636 108.206L67.1446 108.149L67.2044 108.144C67.667 108.107 68.1202 107.993 68.5457 107.807C68.0361 107.85 67.5234 107.786 67.0398 107.619L67.0121 107.611L67.0072 107.582C66.9004 106.968 66.9276 106.338 67.087 105.735C67.2465 105.132 67.5343 104.571 67.9308 104.09C68.3273 103.61 68.823 103.221 69.3839 102.95C69.9447 102.68 70.5573 102.535 71.1796 102.524C71.561 102.519 71.9371 102.434 72.2834 102.274C72.6298 102.114 72.9385 101.882 73.1896 101.595L73.2251 101.554C73.5539 101.179 73.9274 100.846 74.337 100.562L74.3683 100.54L74.3959 100.567C74.6574 100.814 74.95 101.025 75.2663 101.197C75.0362 100.956 74.8455 100.68 74.7011 100.38L74.6814 100.34L74.7194 100.318C75.9663 99.5878 77.432 99.326 78.854 99.5798C80.2759 99.8335 81.5613 100.586 82.48 101.703C83.3987 102.82 83.8906 104.228 83.8677 105.675C83.8448 107.122 83.3086 108.513 82.3551 109.601C82.1294 109.858 81.8827 110.096 81.6175 110.312C80.1325 111.493 78.931 112.994 78.1018 114.703C77.9286 115.067 77.7058 115.405 77.4398 115.707C77.3946 115.759 77.3464 115.811 77.2966 115.862L77.239 115.922L77.2176 115.842C77.1515 115.603 77.1155 115.358 77.1104 115.111C77.0099 115.454 76.9543 115.809 76.9449 116.167L76.9443 116.188L76.9276 116.202C76.3093 116.708 75.5629 117.031 74.7717 117.137C73.9806 117.242 73.1757 117.125 72.447 116.799C71.7184 116.472 71.0945 115.95 70.6451 115.289C70.1956 114.628 69.9383 113.855 69.9018 113.056Z" fill="#EA5E44"/>
<path opacity="0.15" d="M70.5737 114.71C70.5814 114.865 70.5976 115.02 70.6221 115.174C70.2022 114.528 69.9605 113.782 69.9218 113.011C69.9161 112.893 69.9038 112.776 69.8872 112.659C70.2952 113.269 70.5323 113.977 70.5737 114.71Z" fill="black"/>
<path opacity="0.15" d="M69.2176 109.461C68.8753 109.61 68.5149 109.712 68.1457 109.765C68.0034 109.614 67.8722 109.454 67.7529 109.285C68.2241 109.443 68.7225 109.503 69.2176 109.461Z" fill="black"/>
<path opacity="0.15" d="M67.6379 108.043C67.5998 108.416 67.6101 108.793 67.6685 109.164C67.4641 108.852 67.3011 108.515 67.1835 108.161L67.1646 108.104L67.2243 108.1C67.363 108.088 67.501 108.069 67.6379 108.043Z" fill="black"/>
<path opacity="0.15" d="M68.0366 103.945C68.4333 103.494 68.9194 103.131 69.464 102.878C70.0086 102.626 70.5996 102.49 71.1995 102.479C71.5809 102.475 71.957 102.39 72.3034 102.229C72.6497 102.069 72.9585 101.838 73.2095 101.55L73.245 101.509C73.5739 101.135 73.9473 100.801 74.3569 100.518L74.3882 100.496L74.4158 100.522C74.6774 100.769 74.97 100.981 75.2862 101.152C75.0562 100.911 74.8654 100.636 74.721 100.335L74.7013 100.296L74.7393 100.274C75.566 99.7888 76.4953 99.5067 77.4515 99.4503C78.4076 99.394 79.3636 99.5649 80.2413 99.9492C81.119 100.333 81.8935 100.92 82.5018 101.662C83.1101 102.403 83.5349 103.278 83.7414 104.215C83.3436 103.515 82.811 102.901 82.1746 102.408C81.5382 101.916 80.8106 101.555 80.0339 101.346C79.2572 101.137 78.4469 101.085 77.6499 101.193C76.853 101.3 76.0852 101.565 75.3912 101.972L75.3532 101.994L75.3729 102.034C75.5173 102.334 75.708 102.609 75.938 102.85C75.6218 102.679 75.3292 102.467 75.0677 102.22L75.0401 102.194L75.0088 102.216C74.5991 102.5 74.2257 102.833 73.8968 103.208L73.8614 103.248C73.6103 103.536 73.3016 103.767 72.9552 103.928C72.6089 104.088 72.2328 104.173 71.8514 104.178C70.8541 104.195 69.8935 104.558 69.1335 105.205C68.3734 105.852 67.861 106.743 67.6834 107.727C67.4726 107.689 67.2643 107.638 67.0598 107.575L67.0321 107.566L67.0272 107.538C66.9152 106.901 66.9479 106.248 67.1226 105.626C67.2974 105.004 67.6098 104.429 68.0366 103.945Z" fill="black"/>
<path d="M63.2065 76.169C65.746 73.7015 67.1987 70.1337 67.1987 66.3695C67.1987 66.3447 67.1987 66.3198 67.1986 66.295L67.1984 66.2249C67.1974 63.7641 67.8488 61.3472 69.0858 59.2215L69.1831 59.0543L69.3216 59.1889C70.3951 60.2305 71.6334 61.0867 72.9863 61.7226C71.9321 60.7687 71.0489 59.4644 70.2382 57.674L70.1996 57.5891L70.258 57.5166C71.5131 55.9512 73.0918 54.6768 74.8853 53.7812C76.6789 52.8855 78.6448 52.3898 80.6478 52.3282C82.6508 52.2665 84.6434 52.6404 86.4884 53.4241C88.3335 54.2077 89.9872 55.3826 91.3358 56.8678C92.1583 57.7818 93.1638 58.5118 94.2867 59.0103C95.4096 59.5088 96.6247 59.7645 97.8529 59.7608L98.0265 59.7601C99.6303 59.7599 101.228 59.9563 102.784 60.3449L102.903 60.3747L102.899 60.4971C102.859 61.6561 102.97 62.8154 103.229 63.9455C103.321 62.8761 103.581 61.8279 103.998 60.8394L104.051 60.7078L104.186 60.7525C108.6 62.2202 112.348 65.2143 114.76 69.1988C117.172 73.1833 118.089 77.8978 117.348 82.4983C116.607 87.0988 114.256 91.2847 110.716 94.3065C107.175 97.3284 102.677 98.9888 98.0265 98.9904C96.926 98.9905 95.8274 98.8986 94.7422 98.7159C88.4129 97.6461 82.3328 97.9222 76.6708 99.5363C75.4244 99.8906 74.1349 100.07 72.8393 100.069C72.6188 100.069 72.3904 100.063 72.1606 100.052L71.8944 100.039L72.0421 99.8165C72.4764 99.1498 72.9924 98.5404 73.5781 98.0024C72.5358 98.4891 71.5609 99.1092 70.6778 99.8472L70.6248 99.8915L70.5562 99.8803C68.0211 99.4577 65.6531 98.3376 63.7164 96.6449C61.7796 94.9523 60.3504 92.7537 59.5881 90.2945C58.8258 87.8352 58.7605 85.2121 59.3994 82.7179C60.0383 80.2236 61.3564 77.9563 63.2065 76.169Z" fill="#F7C16E"/>
<g opacity="0.15">
<path d="M75.9274 53.3086C76.4058 54.1042 76.9944 54.8277 77.6756 55.4576C76.7002 54.9987 75.7831 54.4244 74.9441 53.7469C75.266 53.5881 75.5937 53.442 75.9274 53.3086Z" fill="black"/>
<path d="M67.8958 69.904C67.1411 70.6378 66.4718 71.4549 65.9006 72.3395C66.7602 70.4674 67.2032 68.4303 67.1988 66.3695C67.1988 66.3447 67.1988 66.3198 67.1986 66.295L67.1984 66.2249C67.1975 63.7641 67.8488 61.3472 69.0858 59.2215L69.1831 59.0543L69.3216 59.1889C70.0866 59.9298 70.936 60.5779 71.8523 61.1198C71.6161 64.5048 70.2058 67.6596 67.8958 69.904Z" fill="black"/>
<path d="M71.8877 59.9599L71.8879 60.03C71.888 60.0548 71.888 60.0797 71.888 60.1045C71.888 60.241 71.8856 60.3771 71.8818 60.513C71.2283 59.6322 70.6769 58.6797 70.2382 57.674L70.1996 57.5891L70.258 57.5166C70.99 56.6038 71.8333 55.7866 72.7682 55.084C72.1861 56.6435 71.8879 58.2949 71.8877 59.9599Z" fill="black"/>
<path d="M63.2065 76.169C63.874 75.5184 64.4671 74.7953 64.9749 74.0131C64.0655 75.9544 63.6171 78.0804 63.6648 80.2244C63.7126 82.3684 64.2551 84.4722 65.25 86.371C66.2448 88.2698 67.665 89.9119 69.3991 91.1688C71.1333 92.4256 73.1343 93.263 75.2455 93.6153L75.314 93.6265L75.3671 93.5823C76.2502 92.8443 77.2251 92.2242 78.2674 91.7375C77.6817 92.2754 77.1657 92.8848 76.7314 93.5515L76.5837 93.774L76.8499 93.7869C77.0797 93.7981 77.3081 93.8037 77.5285 93.8037C78.8242 93.8048 80.1137 93.6257 81.3601 93.2714C87.0221 91.6572 93.1022 91.3812 99.4315 92.4509C100.517 92.6337 101.615 92.7255 102.716 92.7255C107.513 92.7291 112.143 90.96 115.719 87.7568C114.133 91.1145 111.628 93.9524 108.496 95.9409C105.365 97.9294 101.734 98.9868 98.0265 98.9904C96.926 98.9905 95.8275 98.8987 94.7422 98.7159C88.4129 97.6462 82.3328 97.9222 76.6708 99.5363C75.4244 99.8906 74.1349 100.07 72.8393 100.069C72.6188 100.069 72.3904 100.063 72.1606 100.052L71.8944 100.039L72.0421 99.8165C72.4764 99.1498 72.9924 98.5404 73.5782 98.0024C72.5358 98.4891 71.5609 99.1092 70.6778 99.8472L70.6248 99.8915L70.5562 99.8803C68.0211 99.4577 65.6531 98.3376 63.7164 96.6449C61.7796 94.9523 60.3504 92.7537 59.5881 90.2945C58.8258 87.8352 58.7605 85.2122 59.3994 82.7179C60.0383 80.2237 61.3564 77.9564 63.2065 76.169Z" fill="black"/>
</g>
<path d="M9.86898 114.798C7.62657 114.798 5.4569 114.001 3.74572 112.549C2.03454 111.097 0.892755 109.084 0.523367 106.867L0.51573 106.821L0.545907 106.784C1.0488 106.18 1.47134 105.513 1.80298 104.8C1.43641 105.201 1.02113 105.554 0.566844 105.851L0.415223 105.952L0.406479 105.77C0.398843 105.613 0.395023 105.456 0.395023 105.306C0.394259 104.419 0.516336 103.537 0.757758 102.684C1.85766 98.8104 2.04574 94.6506 1.31682 90.3203C1.19227 89.5778 1.12969 88.8262 1.12973 88.0733C1.13085 84.8915 2.26226 81.814 4.32138 79.3919C6.38049 76.9698 9.23283 75.3612 12.3677 74.8542C15.5025 74.3472 18.715 74.9748 21.4301 76.6248C24.1452 78.2748 26.1854 80.8394 27.1855 83.8592L27.216 83.9513L27.1263 83.9876C26.4527 84.2733 25.7385 84.4509 25.0097 84.5138C25.7799 84.6913 26.5698 84.7674 27.3596 84.74L27.443 84.7371L27.4633 84.8183C27.7281 85.883 27.8619 86.9761 27.8617 88.0733L27.8612 88.1921C27.8587 89.0324 28.033 89.8637 28.3727 90.632C28.7123 91.4002 29.2098 92.0881 29.8326 92.6508C30.8446 93.5735 31.6452 94.7049 32.1792 95.9672C32.7132 97.2295 32.9679 98.5928 32.9259 99.9632C32.8839 101.334 32.5462 102.679 31.9358 103.906C31.3255 105.133 30.4572 106.213 29.3905 107.071L29.3411 107.111L29.2832 107.085C28.0632 106.53 27.1744 105.926 26.5245 105.205C26.9578 106.13 27.5412 106.978 28.2509 107.712L28.3427 107.807L28.2288 107.873C26.7802 108.72 25.1334 109.165 23.4566 109.165L23.4088 109.165C23.3919 109.165 23.3749 109.165 23.358 109.165C22.1196 109.151 20.891 109.386 19.7443 109.855C18.5977 110.324 17.556 111.018 16.6805 111.896C15.7952 112.81 14.7366 113.537 13.567 114.036C12.3973 114.534 11.14 114.793 9.86898 114.798Z" fill="#F7C16E"/>
<path d="M6.5162 129.756C6.47507 129.756 6.43533 129.741 6.40427 129.714C6.37322 129.687 6.35293 129.65 6.34714 129.609C6.33988 129.558 5.62833 124.415 6.26738 117.581C6.85754 111.27 8.75279 102.179 14.4302 94.7133C14.4438 94.6954 14.4608 94.6803 14.4802 94.669C14.4996 94.6577 14.5211 94.6503 14.5434 94.6472C14.5656 94.6442 14.5883 94.6456 14.61 94.6514C14.6317 94.6571 14.6521 94.6671 14.67 94.6807C14.6878 94.6944 14.7029 94.7114 14.7142 94.7309C14.7255 94.7504 14.7328 94.7719 14.7358 94.7942C14.7388 94.8165 14.7374 94.8392 14.7316 94.8609C14.7259 94.8827 14.7159 94.9031 14.7022 94.921C9.07384 102.323 7.19387 111.347 6.60786 117.613C5.97253 124.408 6.67849 129.51 6.6857 129.56C6.68913 129.585 6.68731 129.609 6.68036 129.633C6.67342 129.657 6.66151 129.678 6.64544 129.697C6.62937 129.715 6.60951 129.73 6.58722 129.74C6.56492 129.751 6.5407 129.756 6.5162 129.756Z" fill="#3F3D56"/>
<path d="M9.35435 104.585C9.31823 104.585 9.28303 104.574 9.2538 104.553C9.22456 104.532 9.2028 104.502 9.19162 104.467C9.18044 104.433 9.18043 104.396 9.19158 104.361C9.20273 104.327 9.22447 104.297 9.25369 104.276C10.8714 103.178 12.619 102.287 14.4563 101.622C17.3267 100.569 21.6915 99.6142 26.185 101.047C26.2065 101.054 26.2264 101.065 26.2436 101.079C26.2609 101.094 26.2751 101.112 26.2854 101.132C26.2958 101.152 26.3021 101.174 26.304 101.196C26.3059 101.218 26.3034 101.241 26.2966 101.263C26.2898 101.284 26.2788 101.304 26.2643 101.321C26.2498 101.338 26.232 101.353 26.212 101.363C26.192 101.373 26.1701 101.379 26.1477 101.381C26.1253 101.383 26.1027 101.381 26.0813 101.374C21.6799 99.9701 17.3942 100.909 14.5739 101.944C12.7661 102.597 11.0466 103.474 9.45472 104.553C9.42557 104.574 9.39042 104.585 9.35435 104.585Z" fill="#3F3D56"/>
<path d="M27.6819 97.4756C27.8794 97.4217 28.0626 97.3251 28.2188 97.1925C28.3749 97.0599 28.5002 96.8947 28.5857 96.7084C28.6712 96.5221 28.7149 96.3192 28.7137 96.1142C28.7125 95.9091 28.6665 95.7068 28.5788 95.5215L31.5957 85.6661L29.3767 85.2253L26.6175 94.8857C26.3166 95.0539 26.0877 95.3268 25.9742 95.6528C25.8607 95.9788 25.8705 96.3352 26.0017 96.6544C26.1329 96.9736 26.3764 97.2336 26.6861 97.3849C26.9958 97.5363 27.3501 97.5685 27.6819 97.4756Z" fill="#FFB6B6"/>
<path d="M31.7715 82.7867C31.4512 82.6594 31.0988 82.6379 30.7655 82.7255V82.7275C30.6532 82.7545 30.5444 82.7949 30.4417 82.8479C30.3291 82.9033 30.2237 82.9726 30.1281 83.054C29.9213 83.226 29.7615 83.4479 29.6638 83.6988L28.1936 86.2657C28.1513 86.3385 28.1254 86.4197 28.1177 86.5035C28.11 86.5874 28.1206 86.672 28.1488 86.7513C28.1764 86.8311 28.2209 86.904 28.2792 86.9649C28.3376 87.0258 28.4084 87.0734 28.4868 87.1043L28.8045 87.2288L30.3134 87.8226L30.8694 88.0429L31.244 88.1898C31.3223 88.2208 31.4064 88.2345 31.4904 88.2299C31.5745 88.2253 31.6565 88.2025 31.731 88.1632C31.8055 88.1238 31.8705 88.0688 31.9218 88.0019C31.9731 87.9351 32.0093 87.8579 32.028 87.7756L32.6919 84.9006C32.8489 84.4979 32.8402 84.0493 32.6677 83.653C32.4951 83.2568 32.1729 82.9452 31.7715 82.7867Z" fill="#3F3D56"/>
<path d="M36.1437 127.134H37.6799L38.411 121.197H36.1437V127.134Z" fill="#FFB6B6"/>
<path d="M35.333 129.801H36.4346L36.6312 128.759L37.1348 129.801H40.0565C40.1966 129.801 40.333 129.756 40.4458 129.673C40.5586 129.59 40.6419 129.473 40.6836 129.339C40.7253 129.205 40.7231 129.061 40.6775 128.928C40.6318 128.796 40.545 128.681 40.4297 128.601L38.0966 126.987V125.933L35.6424 126.08L35.333 129.801Z" fill="#2F2E41"/>
<path d="M21.2046 124.08L22.5258 124.865L26.177 120.132L24.227 118.974L21.2046 124.08Z" fill="#FFB6B6"/>
<path d="M19.1497 125.96L20.0972 126.523L20.7968 125.727L20.6994 126.881L23.2125 128.374C23.3329 128.446 23.4731 128.477 23.6124 128.463C23.7518 128.449 23.8831 128.391 23.9871 128.297C24.0912 128.203 24.1625 128.078 24.1908 127.941C24.219 127.803 24.2027 127.66 24.1442 127.533L22.9593 124.952L23.4956 124.045L21.3101 122.917L19.1497 125.96Z" fill="#2F2E41"/>
<path d="M36.8293 89.1738L37.5759 93.9421L30.4843 94.0358L31.4175 89.4543L36.8293 89.1738Z" fill="#FFB6B6"/>
<path d="M37.6032 93.8819L39.6287 98.8041L39.7762 111.967L38.0477 124.535H36.1349L35.3512 112.172L33.4236 103.713L31.5224 112.56L25.6112 121.22H22.7064L28.0468 111.677L28.6648 101.282C28.6648 101.282 28.2796 96.8717 30.2511 94.2694L30.731 92.8802L37.6032 93.8819Z" fill="#2F2E41"/>
<path d="M37.7013 84.7823C37.6972 84.7394 37.6911 84.6945 37.683 84.6517C37.5297 83.6228 36.9759 82.6967 36.1427 82.0761C35.3096 81.4554 34.265 81.1908 33.2376 81.34C32.2727 81.4849 31.3937 81.9775 30.7655 82.7255V82.7275C30.7329 82.7663 30.7023 82.8071 30.6718 82.8479C30.6168 82.9173 30.5659 82.9908 30.517 83.0642C30.0756 83.7325 29.8483 84.5198 29.8654 85.321V85.323C29.8718 85.6317 29.9149 85.9386 29.9937 86.2371C30.1293 86.7593 30.2361 87.2886 30.3134 87.8226C30.3663 88.1613 30.4071 88.4939 30.4376 88.8183C30.4559 88.9816 30.4702 89.1428 30.4824 89.2999V89.3019C30.5435 90.0793 30.5639 90.7772 30.5822 91.3179C30.5903 91.6117 30.5985 91.8566 30.6127 92.0443C30.6131 92.0566 30.6144 92.0689 30.6168 92.081C30.6325 92.2072 30.6865 92.3254 30.7716 92.4197C30.782 92.433 30.7936 92.4452 30.8062 92.4565C30.8965 92.5379 31.0057 92.5954 31.1239 92.6238C31.1648 92.632 31.2064 92.6361 31.2481 92.636H31.2603L32.4475 92.081L33.3842 91.6444L36.563 90.1589C36.6932 90.1562 36.8196 90.1138 36.9251 90.0372C37.0307 89.9606 37.1104 89.8536 37.1535 89.7304V89.7284C37.1576 89.712 37.1637 89.6957 37.1678 89.6774C37.3388 89.002 37.6422 88.2776 37.7502 87.1125C37.7644 86.9452 37.7766 86.7717 37.7828 86.5861V86.584C37.8006 85.9822 37.7734 85.38 37.7013 84.7823Z" fill="#3F3D56"/>
<path d="M33.2865 80.6948C34.9425 80.6948 36.2849 79.3497 36.2849 77.6903C36.2849 76.031 34.9425 74.6859 33.2865 74.6859C31.6305 74.6859 30.2881 76.031 30.2881 77.6903C30.2881 79.3497 31.6305 80.6948 33.2865 80.6948Z" fill="#FFB6B6"/>
<path d="M30.0853 82.3602C29.4537 82.3611 28.8481 82.6128 28.4015 83.0604C27.9548 83.5079 27.7036 84.1147 27.7028 84.7476V89.6957C27.7025 90.2519 27.8964 90.7908 28.2508 91.2189C28.6052 91.647 29.0978 91.9376 29.6434 92.0402H29.6454C29.7905 92.0673 29.9377 92.081 30.0853 92.081H33.3842V82.3602H30.0853Z" fill="#EA5E44"/>
<path d="M30.1281 82.8479V86.4575C30.1281 86.5679 30.1718 86.6738 30.2497 86.7518C30.3276 86.8299 30.4333 86.8737 30.5435 86.8737C30.6536 86.8737 30.7593 86.8299 30.8372 86.7518C30.9151 86.6738 30.9589 86.5679 30.9589 86.4575V82.8479H30.1281Z" fill="#3F3D56"/>
<path d="M31.9587 88.8183H29.5436C29.4747 88.8183 29.4065 88.832 29.3429 88.8585C29.2793 88.885 29.2215 88.9238 29.1729 88.9727C29.1243 89.0216 29.0858 89.0796 29.0596 89.1435C29.0334 89.2073 29.02 89.2757 29.0203 89.3447V90.7914C29.0201 90.9307 29.0752 91.0644 29.1733 91.1631C29.2714 91.2618 29.4046 91.3174 29.5436 91.3179H31.9587C32.098 91.3175 32.2314 91.262 32.3299 91.1633C32.4283 91.0646 32.4838 90.9309 32.4841 90.7914V89.3447C32.4841 89.2756 32.4705 89.2071 32.4441 89.1433C32.4177 89.0794 32.379 89.0214 32.3302 88.9725C32.2814 88.9236 32.2235 88.8848 32.1598 88.8584C32.096 88.8319 32.0277 88.8183 31.9587 88.8183Z" fill="#3F3D56"/>
<path d="M36.4202 88.3606C37.0789 87.523 37.4266 86.482 37.4037 85.4159C37.4037 83.272 36.1293 81.5279 34.5629 81.5279C33.7219 81.5279 32.9296 82.0315 32.3892 82.9096L32.625 83.0554C33.1139 82.2612 33.8202 81.8056 34.5629 81.8056C35.9765 81.8056 37.1266 83.4252 37.1266 85.4159C37.1496 86.4163 36.8252 87.3938 36.2088 88.1811L36.4202 88.3606Z" fill="#EA5E44"/>
<path d="M42.9543 95.6201C43.045 95.4362 43.0943 95.2347 43.0988 95.0297C43.1033 94.8247 43.0629 94.6211 42.9804 94.4335C42.898 94.2458 42.7754 94.0785 42.6215 93.9434C42.4675 93.8083 42.2858 93.7087 42.0893 93.6516L36.7273 84.8538L34.9266 86.226L40.3138 94.7011C40.2399 95.0384 40.292 95.391 40.4603 95.6923C40.6285 95.9936 40.9012 96.2226 41.2267 96.3358C41.5522 96.4491 41.9078 96.4388 42.2263 96.3069C42.5447 96.175 42.8037 95.9306 42.9543 95.6201Z" fill="#FFB6B6"/>
<path d="M38.5891 85.927L37.683 84.6517L37.1983 83.9702L36.8827 83.5253C36.7836 83.3295 36.6457 83.1559 36.4774 83.0152C36.1902 82.7744 35.829 82.64 35.4545 82.6349C35.08 82.6298 34.7152 82.7541 34.4215 82.987C34.1278 83.22 33.9233 83.5472 33.8423 83.9136C33.7613 84.28 33.8088 84.6632 33.9768 84.9986L34.9176 87.8042C34.9448 87.8841 34.9887 87.9571 35.0466 88.0185C35.1044 88.0798 35.1747 88.128 35.2527 88.1597C35.3307 88.1914 35.4146 88.206 35.4988 88.2024C35.5829 88.1988 35.6652 88.1771 35.7403 88.1388L36.0437 87.9838L36.5222 87.7389L36.9519 87.5206H36.9539L37.7502 87.1125L38.021 86.9758L38.3794 86.7921C38.4542 86.7534 38.5199 86.699 38.5719 86.6326C38.6239 86.5662 38.6612 86.4895 38.681 86.4074C38.7009 86.3254 38.703 86.2401 38.6871 86.1572C38.6713 86.0743 38.6379 85.9958 38.5891 85.927Z" fill="#3F3D56"/>
<path d="M180.285 130H0.582238C0.557601 130 0.53319 129.995 0.510405 129.986C0.48762 129.977 0.46691 129.963 0.44946 129.945C0.43201 129.928 0.418165 129.907 0.408718 129.884C0.399271 129.862 0.394409 129.837 0.394409 129.812C0.394409 129.788 0.399271 129.763 0.408718 129.74C0.418165 129.718 0.43201 129.697 0.44946 129.68C0.46691 129.662 0.48762 129.648 0.510405 129.639C0.53319 129.63 0.557601 129.625 0.582238 129.625H180.285C180.335 129.625 180.382 129.645 180.417 129.68C180.452 129.715 180.472 129.763 180.472 129.812C180.472 129.862 180.452 129.91 180.417 129.945C180.382 129.98 180.335 130 180.285 130Z" fill="#CCCCCC"/>
<path d="M95.6359 114.275C94.8487 112.814 94.7388 110.9 95.7054 109.552C96.1835 111.292 97.2605 112.807 98.7459 113.828C99.3202 114.22 99.9996 114.596 100.196 115.264C100.299 115.689 100.236 116.139 100.018 116.519C99.801 116.894 99.5368 117.239 99.2319 117.547L99.2041 117.652C97.7789 116.806 96.4231 115.735 95.6359 114.275Z" fill="#EA5E44"/>
<path d="M47.3743 77.3422C46.587 75.8816 46.4771 73.9674 47.4437 72.6194C47.9218 74.3598 48.9988 75.8747 50.4842 76.896C51.0585 77.2877 51.738 77.6636 51.9344 78.3313C52.0378 78.757 51.9741 79.2062 51.7565 79.5862C51.5394 79.9613 51.2751 80.307 50.9702 80.6149L50.9424 80.7194C49.5173 79.8731 48.1615 78.8027 47.3743 77.3422Z" fill="#E6E6E6"/>
<path d="M31.4579 75.239V75.2411C31.4582 75.3718 31.4415 75.502 31.4084 75.6284C31.4031 75.6506 31.3968 75.6738 31.3894 75.696V75.697C31.3187 75.9228 31.1968 76.1291 31.0333 76.2997C30.8697 76.4704 30.669 76.6008 30.4467 76.6807C30.414 76.6933 30.3803 76.7039 30.3466 76.7134C30.2756 76.734 30.2031 76.7488 30.1297 76.7577C30.0637 76.7671 29.9972 76.7717 29.9306 76.7714C29.8785 76.7716 29.8265 76.7692 29.7747 76.764C29.6535 76.7517 29.5343 76.7244 29.4197 76.6828C29.4018 76.6775 29.3842 76.6712 29.3671 76.6638C29.3585 76.6607 29.35 76.6572 29.3418 76.6532C29.1507 76.5731 28.9779 76.4548 28.8338 76.3057C28.6897 76.1566 28.5774 75.9797 28.5036 75.7858C28.4298 75.5918 28.3961 75.3849 28.4046 75.1775C28.4131 74.9701 28.4635 74.7666 28.5529 74.5793L28.5539 74.5783C28.6288 74.4212 28.7304 74.2783 28.8541 74.1561C29.1398 73.8705 29.527 73.7103 29.9306 73.7107C29.9506 73.7104 29.9707 73.7111 29.9906 73.7128C30.223 73.7225 30.4502 73.7849 30.655 73.8956C30.8597 74.0062 31.0367 74.1621 31.1724 74.3514C31.2899 74.5146 31.3737 74.6998 31.4189 74.8959C31.4447 75.0084 31.4578 75.1235 31.4579 75.239Z" fill="#2F2E41"/>
<path d="M29.6953 74.3109C29.5611 73.8038 29.2709 73.3519 28.866 73.0193C28.4611 72.6868 27.962 72.4903 27.4394 72.4578C26.9169 72.4254 26.3974 72.5585 25.9546 72.8385C25.5118 73.1184 25.1681 73.5309 24.9724 74.0175C24.6443 74.8329 24.7646 75.7583 24.5681 76.6151C24.3699 77.3932 23.9226 78.0847 23.2947 78.5837C22.6668 79.0826 21.8929 79.3615 21.0917 79.3775L24.0642 80.5777C24.3816 80.7403 24.7375 80.8126 25.093 80.7865C25.6103 80.6987 25.9702 80.2036 26.1159 79.6987C26.2616 79.1937 26.2498 78.6574 26.342 78.1399C26.4617 77.5042 26.7343 76.9073 27.1362 76.4009C27.538 75.8946 28.0571 75.494 28.6483 75.234C28.983 75.0907 29.3549 74.9827 29.5916 74.7057C29.8282 74.4286 29.815 73.9059 29.4721 73.7838" fill="#2F2E41"/>
<path d="M34.5123 74.3229C34.1091 73.44 33.0452 73.6197 32.0833 73.7361C31.6029 73.8104 31.1478 74.0009 30.7575 74.2911C30.3672 74.5813 30.0534 74.9625 29.8433 75.4017C29.4321 76.2917 29.3535 77.3001 29.6218 78.2433C29.7657 78.8857 30.1091 79.4658 30.6027 79.9004C31.1108 80.3097 33.499 81.2779 33.6978 80.4442C33.4493 81.5319 33.9493 81.3616 34.6894 82.1953C35.0727 81.0414 35.2524 78.8673 35.6358 77.7135L35.8089 77.1924C35.9305 76.8263 36.0523 76.4596 36.1402 76.0839C36.2506 75.6119 36.2931 75.0708 36.0006 74.6847C35.708 74.2987 34.971 74.2837 34.8231 74.7452" fill="#2F2E41"/>
<path d="M34.0297 77.9971L33.9015 77.1795C33.9886 76.1627 33.8464 74.5453 34.5124 74.3229L34.9197 74.731C34.662 74.817 34.172 76.3376 34.0297 77.9971Z" fill="#FF6584"/>
</g>
<defs>
<clipPath id="clip0_117_767">
<rect width="190" height="130" fill="white"/>
</clipPath>
</defs>
</svg>
