<svg width="190" height="148" viewBox="0 0 190 148" fill="none" xmlns="http://www.w3.org/2000/svg">
<g clip-path="url(#clip0_117_725)">
<path d="M8.42619 143.778C14.3485 148.073 22.0233 148.288 29.4419 147.761C30.4778 147.687 31.5064 147.601 32.5254 147.508C32.5316 147.506 32.5396 147.507 32.5459 147.505C32.5949 147.5 32.6439 147.496 32.6908 147.493C32.9011 147.473 33.1116 147.453 33.3199 147.433L33.2707 147.528L33.1162 147.821C33.1717 147.723 33.2272 147.627 33.2827 147.529C33.2991 147.499 33.3174 147.47 33.3336 147.441C35.2554 144.074 37.1615 140.584 37.6477 136.74C38.1503 132.751 36.7379 128.233 33.2493 126.272C32.7918 126.015 32.3073 125.811 31.8048 125.663C31.5961 125.599 31.3847 125.547 31.1708 125.502C29.8624 125.209 28.5003 125.273 27.2245 125.686C25.9486 126.099 24.8051 126.847 23.9116 127.852C23.018 128.857 22.4066 130.084 22.1402 131.406C21.8738 132.729 21.9621 134.098 22.396 135.375C19.4383 132.322 19.99 127.37 21.0103 123.231C22.0325 119.092 23.27 114.486 21.1909 110.769C20.0351 108.7 18.0027 107.416 15.7218 106.899C15.6518 106.883 15.5819 106.868 15.5118 106.855C12.7942 106.301 9.96892 106.799 7.60034 108.25C3.23905 111.017 0.999031 116.262 0.272018 121.4C-0.899337 129.668 1.69289 138.895 8.42619 143.778Z" fill="#F7C16E"/>
<path d="M10.3383 130.524C10.5102 132.348 10.9454 134.137 11.6302 135.834C12.2613 137.336 13.112 138.735 14.154 139.984C16.2825 142.561 19.097 144.499 22.1537 145.79C24.4909 146.753 26.9397 147.415 29.4419 147.761C30.4778 147.687 31.5064 147.601 32.5254 147.508C32.5316 147.506 32.5396 147.507 32.5459 147.505C32.5949 147.5 32.6439 147.496 32.6908 147.493C32.9011 147.473 33.1116 147.453 33.3199 147.433L33.2707 147.528L33.1162 147.821C33.1717 147.723 33.2272 147.627 33.2827 147.529C33.2991 147.499 33.3174 147.47 33.3336 147.44C31.4577 145.559 30.0571 143.253 29.2492 140.714C28.4413 138.176 28.2495 135.48 28.6901 132.851C29.1511 130.242 30.2183 127.779 31.8048 125.663C31.5961 125.599 31.3847 125.547 31.1708 125.501C30.5679 126.331 30.039 127.213 29.5904 128.136C27.9806 131.43 27.4671 135.157 28.1257 138.767C28.738 142.034 30.2636 145.057 32.5232 147.481C32.3254 147.467 32.1256 147.451 31.9301 147.433C28.2269 147.117 24.5314 146.316 21.1726 144.674C18.3016 143.305 15.8091 141.247 13.9145 138.68C11.8803 135.856 10.984 132.459 10.83 129.007C10.6667 125.311 11.1432 121.55 11.9811 117.956C12.8368 114.271 14.1372 110.706 15.8533 107.339C15.8917 107.263 15.8995 107.174 15.875 107.092C15.8505 107.01 15.7956 106.941 15.7218 106.899C15.6602 106.857 15.5848 106.841 15.5118 106.855C15.4761 106.865 15.443 106.882 15.415 106.906C15.3869 106.93 15.3647 106.961 15.3499 106.995C15.1382 107.411 14.9304 107.827 14.7305 108.248C13.0659 111.753 11.8404 115.453 11.0821 119.263C10.346 122.938 9.95307 126.782 10.3383 130.524Z" fill="white"/>
<path d="M186.19 127.244H88.2414C87.2312 127.243 86.2627 126.838 85.5484 126.119C84.834 125.4 84.4322 124.425 84.4311 123.409V3.83537C84.4322 2.81851 84.834 1.84364 85.5484 1.12462C86.2627 0.405594 87.2312 0.00114471 88.2414 0H186.19C187.2 0.00114471 188.168 0.405594 188.883 1.12462C189.597 1.84364 189.999 2.81851 190 3.83537V123.409C189.999 124.425 189.597 125.4 188.883 126.119C188.168 126.838 187.2 127.243 186.19 127.244ZM88.2414 0.451219C87.3501 0.452235 86.4955 0.809102 85.8652 1.44353C85.2349 2.07796 84.8804 2.93815 84.8794 3.83537V123.409C84.8804 124.306 85.2349 125.166 85.8652 125.8C86.4955 126.435 87.3501 126.792 88.2414 126.793H186.19C187.081 126.792 187.936 126.435 188.566 125.8C189.196 125.166 189.551 124.306 189.552 123.409V3.83537C189.551 2.93815 189.196 2.07796 188.566 1.44353C187.936 0.809102 187.081 0.452235 186.19 0.451219H88.2414Z" fill="#3F3D56"/>
<path d="M189.776 9.38318H84.6553V9.8344H189.776V9.38318Z" fill="#3F3D56"/>
<path d="M89.8104 6.76826C90.8007 6.76826 91.6035 5.96019 91.6035 4.96339C91.6035 3.96658 90.8007 3.15851 89.8104 3.15851C88.8201 3.15851 88.0173 3.96658 88.0173 4.96339C88.0173 5.96019 88.8201 6.76826 89.8104 6.76826Z" fill="#3F3D56"/>
<path d="M95.4139 6.76826C96.4042 6.76826 97.207 5.96019 97.207 4.96339C97.207 3.96658 96.4042 3.15851 95.4139 3.15851C94.4236 3.15851 93.6208 3.96658 93.6208 4.96339C93.6208 5.96019 94.4236 6.76826 95.4139 6.76826Z" fill="#3F3D56"/>
<path d="M101.017 6.76826C102.008 6.76826 102.81 5.96019 102.81 4.96339C102.81 3.96658 102.008 3.15851 101.017 3.15851C100.027 3.15851 99.2242 3.96658 99.2242 4.96339C99.2242 5.96019 100.027 6.76826 101.017 6.76826Z" fill="#3F3D56"/>
<path d="M171.007 27.2988H101.076C100.303 27.2988 99.5616 26.9898 99.0152 26.4397C98.4687 25.8897 98.1617 25.1437 98.1617 24.3658C98.1617 23.588 98.4687 22.842 99.0152 22.292C99.5616 21.7419 100.303 21.4329 101.076 21.4329H171.007C171.779 21.4329 172.52 21.7419 173.067 22.292C173.613 22.842 173.92 23.588 173.92 24.3658C173.92 25.1437 173.613 25.8897 173.067 26.4397C172.52 26.9898 171.779 27.2988 171.007 27.2988ZM101.076 21.8841C100.422 21.8841 99.7945 22.1456 99.3322 22.611C98.8698 23.0764 98.61 23.7077 98.61 24.3658C98.61 25.024 98.8698 25.6553 99.3322 26.1207C99.7945 26.5861 100.422 26.8476 101.076 26.8476H171.007C171.66 26.8476 172.288 26.5861 172.75 26.1207C173.212 25.6553 173.472 25.024 173.472 24.3658C173.472 23.7077 173.212 23.0764 172.75 22.611C172.288 22.1456 171.66 21.8841 171.007 21.8841H101.076Z" fill="#3F3D56"/>
<path d="M127.241 68.5854H99.6725C98.6622 68.5842 97.6937 68.1798 96.9794 67.4607C96.2651 66.7417 95.8633 65.7669 95.8621 64.75V41.9634C95.8633 40.9466 96.2651 39.9717 96.9794 39.2527C97.6937 38.5336 98.6622 38.1292 99.6725 38.1281H127.241C128.252 38.1292 129.22 38.5336 129.934 39.2527C130.649 39.9717 131.051 40.9466 131.052 41.9634V64.75C131.051 65.7669 130.649 66.7417 129.934 67.4607C129.22 68.1798 128.252 68.5842 127.241 68.5854ZM99.6725 38.5793C98.7811 38.5803 97.9265 38.9372 97.2962 39.5716C96.6659 40.206 96.3114 41.0662 96.3104 41.9634V64.75C96.3114 65.6472 96.6659 66.5074 97.2962 67.1418C97.9265 67.7763 98.7811 68.1331 99.6725 68.1341H127.241C128.133 68.1331 128.987 67.7763 129.618 67.1418C130.248 66.5074 130.602 65.6472 130.603 64.75V41.9634C130.602 41.0662 130.248 40.206 129.618 39.5716C128.987 38.9372 128.133 38.5803 127.241 38.5793H99.6725Z" fill="#3F3D56"/>
<path d="M174.759 39.2561H147.19C145.209 39.2561 143.604 40.8722 143.604 42.8659V65.6524C143.604 67.6461 145.209 69.2622 147.19 69.2622H174.759C176.739 69.2622 178.345 67.6461 178.345 65.6524V42.8659C178.345 40.8722 176.739 39.2561 174.759 39.2561Z" fill="#3D5A80"/>
<path d="M127.241 111H99.6725C98.6622 110.999 97.6937 110.594 96.9794 109.875C96.2651 109.156 95.8633 108.181 95.8621 107.165V84.378C95.8633 83.3612 96.2651 82.3863 96.9794 81.6673C97.6937 80.9483 98.6622 80.5438 99.6725 80.5427H127.241C128.252 80.5438 129.22 80.9483 129.934 81.6673C130.649 82.3863 131.051 83.3612 131.052 84.378V107.165C131.051 108.181 130.649 109.156 129.934 109.875C129.22 110.594 128.252 110.999 127.241 111ZM99.6725 80.9939C98.7811 80.9949 97.9265 81.3518 97.2962 81.9862C96.6659 82.6206 96.3114 83.4808 96.3104 84.378V107.165C96.3114 108.062 96.6659 108.922 97.2962 109.556C97.9265 110.191 98.7811 110.548 99.6725 110.549H127.241C128.133 110.548 128.987 110.191 129.618 109.556C130.248 108.922 130.602 108.062 130.603 107.165V84.378C130.602 83.4808 130.248 82.6206 129.618 81.9862C128.987 81.3518 128.133 80.9949 127.241 80.9939H99.6725Z" fill="#3F3D56"/>
<path d="M174.759 81.6707H147.19C145.209 81.6707 143.604 83.2869 143.604 85.2805V108.067C143.604 110.061 145.209 111.677 147.19 111.677H174.759C176.739 111.677 178.345 110.061 178.345 108.067V85.2805C178.345 83.2869 176.739 81.6707 174.759 81.6707Z" fill="#3D5A80"/>
<path d="M106.597 63.0743C106.592 63.0743 106.587 63.0742 106.582 63.074L103.446 62.9571C103.348 62.9541 103.255 62.9157 103.183 62.8488C103.111 62.7819 103.066 62.6911 103.055 62.5932C102.839 60.655 101.951 50.7778 105.672 46.6726C106.199 46.0798 106.85 45.6125 107.578 45.3045C108.307 44.9965 109.094 44.8556 109.883 44.892C109.915 44.8941 109.947 44.8872 109.976 44.8723C110.004 44.8573 110.028 44.8348 110.045 44.8072L110.804 43.6064C110.845 43.5414 110.904 43.4893 110.974 43.4562C111.043 43.4231 111.12 43.4102 111.197 43.4189C111.805 43.493 114.908 43.8424 116.212 43.4622C116.289 43.4394 116.371 43.4399 116.448 43.4636C116.524 43.4874 116.592 43.5333 116.643 43.5958L117.64 44.8221C117.657 44.8442 117.679 44.862 117.705 44.8738C117.73 44.8856 117.758 44.8911 117.786 44.8899C118.293 44.8797 120.07 44.9785 121.626 46.7302C123.311 48.6269 125.05 52.9065 123.765 62.522C123.752 62.6207 123.703 62.7113 123.629 62.777C123.554 62.8427 123.459 62.8791 123.36 62.8794H120.89C120.792 62.879 120.697 62.8432 120.623 62.7787C120.549 62.7141 120.5 62.625 120.486 62.5274L119.679 56.9241C119.672 56.8781 119.649 56.8362 119.613 56.8068C119.577 56.7775 119.532 56.7628 119.485 56.7656C119.439 56.7685 119.396 56.7887 119.364 56.8223C119.332 56.8558 119.313 56.9003 119.313 56.9468L119.257 59.5776C119.255 59.6556 119.231 59.7316 119.188 59.7966C119.146 59.8615 119.085 59.9129 119.014 59.9446C118.134 60.3343 113.482 62.1617 108.34 59.8729C108.271 59.8415 108.211 59.7912 108.168 59.7277C108.126 59.6642 108.101 59.59 108.098 59.5134L107.997 57.1231C107.995 57.0764 107.975 57.0322 107.942 56.9993C107.909 56.9664 107.865 56.9472 107.819 56.9456C107.772 56.944 107.727 56.96 107.692 56.9905C107.657 57.021 107.634 57.0638 107.629 57.1102L107.002 62.7092C106.991 62.8095 106.943 62.902 106.868 62.9693C106.794 63.0365 106.697 63.0739 106.597 63.0743Z" fill="#EA5E44"/>
<path d="M119.568 104.353H119.566L107.278 104.275C107.189 104.274 107.103 104.241 107.036 104.181C106.97 104.121 106.927 104.039 106.917 103.949L105.681 93.3741C105.673 93.3059 105.641 93.2427 105.591 93.1962C105.541 93.1497 105.476 93.123 105.408 93.121C104.432 93.089 102.111 92.8652 101.631 91.4824C101.202 90.2509 102.374 88.4344 105.113 86.0833C105.159 86.0432 105.215 86.0155 105.275 86.0027C105.335 85.9898 105.397 85.9924 105.456 86.01C105.515 86.0276 105.568 86.0598 105.611 86.1036C105.655 86.1473 105.686 86.2013 105.703 86.2605L107.125 91.198C107.142 91.2573 107.178 91.3093 107.227 91.3466C107.276 91.3839 107.336 91.4044 107.397 91.4051L119.047 91.4838C119.108 91.4844 119.168 91.4652 119.217 91.429C119.267 91.3928 119.303 91.3416 119.321 91.2829L120.903 86.2161C120.921 86.1596 120.952 86.1081 120.993 86.0661C121.035 86.0241 121.086 85.9929 121.142 85.9749C121.198 85.957 121.258 85.9529 121.316 85.9631C121.374 85.9733 121.428 85.9974 121.475 86.0333C122.555 86.8632 126.032 89.7124 125.46 91.5346C125.16 92.489 123.808 93.021 121.441 93.1158C121.373 93.1182 121.308 93.145 121.258 93.1915C121.208 93.2379 121.177 93.3009 121.169 93.3689L119.932 104.027C119.922 104.117 119.879 104.2 119.812 104.26C119.745 104.32 119.658 104.353 119.568 104.353Z" fill="#EA5E44"/>
<path d="M173.414 59.8212C169.553 60.5694 165.911 62.1926 162.766 64.5678C162.607 64.1416 162.307 63.7833 161.917 63.5528C161.651 63.3865 161.36 63.2635 161.055 63.1884C160.778 63.1174 160.512 63.2868 160.268 63.531C159.987 63.8441 159.751 64.1956 159.567 64.575C155.348 61.6597 148.947 59.7993 148.947 59.7993V59.2162C148.952 59.0788 148.966 58.9419 148.989 58.8063C149.01 58.6496 149.037 58.5111 149.072 58.3416C149.615 55.5611 151.762 49.2074 151.762 49.2074H154.189L158.896 50.1914L164.191 49.8652L169.524 48.7482L170.215 48.6025C171.368 49.5135 172.677 55.8909 173.191 58.6058C173.256 58.9502 173.307 59.2345 173.345 59.444C173.39 59.6809 173.414 59.8212 173.414 59.8212Z" fill="white"/>
<path d="M158.929 87.8116C158.929 87.8116 157.802 88.0953 156.053 92.8627C154.304 97.6302 153.685 103.79 153.685 103.79C153.685 103.79 152.702 105.466 156.899 105.578C156.899 105.578 156.561 106.685 158.929 106.515C161.297 106.345 160.956 106.347 160.956 106.347C160.956 106.347 162.479 105.382 163.156 105.552C163.833 105.722 164.255 105.779 164.988 106.403C165.721 107.026 168.063 106.772 168.09 106.291C168.109 106.054 168.109 105.816 168.09 105.58C168.09 105.58 171.671 105.807 170.994 103.196C170.318 100.585 169.754 96.2989 169.754 96.2989C169.754 96.2989 167.922 87.927 165.834 87.8132C163.746 87.6994 158.929 87.8116 158.929 87.8116Z" fill="white"/>
<path d="M43.178 79.7747C46.8916 79.7747 49.9021 76.7444 49.9021 73.0064C49.9021 69.2684 46.8916 66.2381 43.178 66.2381C39.4644 66.2381 36.4539 69.2684 36.4539 73.0064C36.4539 76.7444 39.4644 79.7747 43.178 79.7747Z" fill="#2F2E41"/>
<path d="M43.7427 79.7876C46.7831 79.7876 49.2478 77.3067 49.2478 74.2464C49.2478 71.1861 46.7831 68.7052 43.7427 68.7052C40.7024 68.7052 38.2377 71.1861 38.2377 74.2464C38.2377 77.3067 40.7024 79.7876 43.7427 79.7876Z" fill="#FFB8B8"/>
<path d="M64.7082 91.1006C64.6208 91.1892 64.5404 91.2845 64.4679 91.3858L53.3591 90.9907L52.0886 88.5922L48.2418 90.0492L50.0812 94.5153C50.2298 94.8761 50.4906 95.1786 50.8246 95.3775C51.1586 95.5764 51.5476 95.6608 51.9333 95.6182L64.504 94.2289C64.796 94.6095 65.1963 94.8916 65.6515 95.0376C66.1067 95.1836 66.5953 95.1867 67.0523 95.0464C67.5093 94.9061 67.9131 94.6291 68.2099 94.2522C68.5066 93.8753 68.6824 93.4164 68.7137 92.9365C68.745 92.4566 68.6305 91.9785 68.3853 91.5658C68.1401 91.153 67.7758 90.8252 67.341 90.6259C66.9062 90.4266 66.4214 90.3653 65.9511 90.4501C65.4808 90.5349 65.0473 90.7618 64.7082 91.1006Z" fill="#FFB8B8"/>
<path d="M46.7621 92.2057C46.6206 92.1418 46.4944 92.0479 46.3922 91.9304C46.2899 91.813 46.2141 91.6747 46.1698 91.525L44.6225 86.2978C44.2866 85.5739 44.2494 84.7455 44.5194 83.9941C44.7893 83.2427 45.3442 82.6297 46.0624 82.2895C46.7807 81.9493 47.6036 81.9097 48.3508 82.1793C49.0981 82.4489 49.7086 83.0057 50.0485 83.7278L53.0458 88.2929C53.1313 88.4232 53.1879 88.5705 53.2118 88.7248C53.2357 88.8791 53.2262 89.0368 53.1841 89.1871C53.142 89.3374 53.0681 89.4768 52.9677 89.5958C52.8672 89.7148 52.7424 89.8106 52.6018 89.8767L47.6612 92.199C47.5207 92.2652 47.3676 92.3 47.2124 92.3012C47.0572 92.3023 46.9037 92.2698 46.7621 92.2057Z" fill="#CCCCCC"/>
<path d="M57.7034 145.276L60.1169 143.954L56.1979 133.954L52.6359 135.906L57.7034 145.276Z" fill="#FFB8B8"/>
<path d="M56.6589 144.82L61.4119 142.216C61.8096 141.998 62.2464 141.861 62.6967 141.813C63.1471 141.765 63.6024 141.806 64.0368 141.935C64.4712 142.064 64.8761 142.278 65.2283 142.565C65.5806 142.851 65.8733 143.205 66.0898 143.605L66.1434 143.704L58.3614 147.968L56.6589 144.82Z" fill="#2F2E41"/>
<path d="M31.1459 145.287H33.8936L35.201 134.618L31.1453 134.619L31.1459 145.287Z" fill="#FFB8B8"/>
<path d="M30.4449 144.384L35.8565 144.384C36.3094 144.384 36.758 144.474 37.1765 144.648C37.5949 144.823 37.9751 145.078 38.2953 145.401C38.6155 145.723 38.8696 146.106 39.0429 146.527C39.2162 146.948 39.3054 147.399 39.3054 147.855V147.968L30.4451 147.968L30.4449 144.384Z" fill="#2F2E41"/>
<path d="M48.2211 97.9363L49.1177 108.766L59.1184 138.965C59.1577 139.083 59.1721 139.209 59.1605 139.334C59.149 139.458 59.1118 139.579 59.0513 139.689C58.9909 139.798 58.9085 139.894 58.8093 139.969C58.7102 140.045 58.5965 140.099 58.4755 140.128L55.4104 140.863C55.2141 140.91 55.0078 140.889 54.8249 140.803C54.6419 140.717 54.493 140.572 54.4022 140.391L41.6165 114.863C41.5748 114.779 41.5085 114.711 41.4268 114.667C41.3451 114.624 41.2519 114.606 41.1601 114.618C41.0682 114.63 40.9822 114.67 40.9139 114.732C40.8455 114.795 40.7982 114.878 40.7783 114.969L35.1516 140.77C35.1078 140.971 34.9971 141.151 34.8378 141.28C34.6785 141.409 34.4803 141.479 34.2759 141.479H31.4245C31.3057 141.479 31.1881 141.455 31.0785 141.409C30.9689 141.363 30.8696 141.296 30.7862 141.211C30.7028 141.125 30.6371 141.024 30.5929 140.913C30.5487 140.803 30.5268 140.684 30.5287 140.564C30.79 122.674 29.928 102.289 36.7901 99.0643L37.9108 96.1314L48.2211 97.9363Z" fill="#2F2E41"/>
<path d="M37.588 96.8994L36.4324 89.8654C36.2412 88.7119 36.3415 87.5285 36.7241 86.4243C37.1068 85.3201 37.7594 84.3306 38.622 83.547C39.4651 82.771 40.4887 82.2212 41.5984 81.9481C42.7082 81.6751 43.8684 81.6877 44.9721 81.9847C45.0376 82.0024 45.1031 82.0206 45.1688 82.0392C46.5268 82.4305 47.7327 83.232 48.6236 84.3353C49.5146 85.4386 50.0477 86.7906 50.1508 88.2086C50.3713 91.2634 50.174 95.6952 47.9816 99.4598L47.939 99.533L37.588 96.8994Z" fill="#CCCCCC"/>
<path d="M49.2191 71.3013C47.9611 72.174 46.468 72.6385 44.9401 72.6323C45.4851 73.0127 46.1056 73.2696 46.7587 73.3854C44.7273 73.824 42.6279 73.8359 40.5918 73.4203C40.1392 73.3473 39.7025 73.1963 39.3008 72.974C39.1006 72.8615 38.9262 72.7078 38.789 72.523C38.6517 72.3382 38.5546 72.1264 38.5039 71.9013C38.3686 71.1233 38.9709 70.4164 39.5968 69.94C40.5551 69.2218 41.6601 68.727 42.8317 68.4913C44.0033 68.2556 45.2123 68.2851 46.3713 68.5774C47.128 68.7743 47.8861 69.107 48.3777 69.7187C48.8692 70.3304 49.0148 71.2735 48.5465 71.9034L49.2191 71.3013Z" fill="#2F2E41"/>
<path d="M43.0895 66.2047C43.7277 63.6112 41.4405 60.7296 38.7865 60.7836C36.0939 60.8383 34.1124 63.2875 32.7503 65.6262C31.3882 67.9648 30.0345 70.6159 27.534 71.6227C26.7065 71.9559 25.8098 72.0772 24.9243 71.9757C24.0388 71.8742 23.1922 71.5531 22.4603 71.0412C21.7284 70.5293 21.1342 69.8426 20.7309 69.0426C20.3276 68.2426 20.1278 67.3544 20.1495 66.4576C19.8138 69.2988 20.2789 72.3729 22.0993 74.5704C23.9196 76.7679 27.3067 77.7584 29.7413 76.2815C31.1318 75.438 32.0205 73.9719 32.7532 72.5137C33.4859 71.0555 34.1379 69.5178 35.2481 68.3256C36.3584 67.1333 38.075 66.342 39.6201 66.8436C40.2334 67.0427 40.7836 67.4309 41.4173 67.5489C42.0509 67.667 42.8487 67.3639 42.9352 66.7211L43.0895 66.2047Z" fill="#2F2E41"/>
<path d="M29.8213 113.231C29.5928 112.962 29.4258 112.645 29.3321 112.304C29.2383 111.962 29.2201 111.604 29.2787 111.255C29.3373 110.905 29.4713 110.573 29.6713 110.282C29.8712 109.99 30.1323 109.746 30.436 109.567L35.2114 88.0219L40.0555 90.0231L33.8383 110.572C34.1033 111.105 34.1647 111.718 34.0108 112.294C33.857 112.871 33.4985 113.37 33.0033 113.698C32.5082 114.025 31.9108 114.159 31.3243 114.073C30.7379 113.987 30.2031 113.688 29.8213 113.231Z" fill="#FFB8B8"/>
<path d="M33.3192 91.1126C33.243 90.9766 33.1967 90.8256 33.1837 90.67C33.1707 90.5144 33.1912 90.3578 33.2438 90.2109L35.0801 85.0793C35.2364 84.296 35.695 83.6069 36.3552 83.1633C37.0155 82.7198 37.8235 82.5578 38.6022 82.713C39.3809 82.8682 40.0667 83.3279 40.5091 83.9913C40.9516 84.6546 41.1147 85.4676 40.9626 86.2518L40.6837 91.7165C40.6757 91.8725 40.6344 92.0249 40.5627 92.1634C40.4909 92.3018 40.3903 92.4231 40.2678 92.5189C40.1453 92.6147 40.0037 92.6828 39.8527 92.7186C39.7017 92.7543 39.5448 92.7569 39.3927 92.7261L34.0469 91.6442C33.8947 91.6135 33.7509 91.5501 33.6254 91.4584C33.4998 91.3666 33.3954 91.2487 33.3192 91.1126Z" fill="#CCCCCC"/>
<path d="M72.4446 88.6963L72.3651 88.6853L72.6646 86.4918C72.7106 86.1551 72.6218 85.8137 72.4178 85.5429C72.2138 85.2721 71.9112 85.0939 71.5767 85.0477L66.9596 84.4088C66.625 84.3625 66.286 84.4519 66.0169 84.6572C65.7478 84.8626 65.5708 85.1672 65.5249 85.5039L63.8814 97.538C63.8354 97.8747 63.9242 98.216 64.1282 98.4869C64.3322 98.7577 64.6348 98.9358 64.9693 98.9821L69.5865 99.621C69.921 99.6673 70.2601 99.5779 70.5291 99.3725C70.7982 99.1672 70.9752 98.8626 71.0212 98.5259L72.1518 90.2467L72.2314 90.2577L72.4446 88.6963Z" fill="#3F3D56"/>
<path d="M71.4316 85.6912L70.8568 85.6116C70.8743 85.6805 70.8747 85.7527 70.858 85.8218C70.8413 85.8909 70.808 85.9548 70.7609 86.0079C70.7139 86.061 70.6546 86.1016 70.5883 86.1262C70.522 86.1508 70.4507 86.1586 70.3807 86.1489L67.8577 85.7998C67.7877 85.7901 67.7211 85.7632 67.6639 85.7215C67.6066 85.6799 67.5605 85.6246 67.5294 85.5608C67.4983 85.4969 67.4834 85.4263 67.4858 85.3552C67.4882 85.2841 67.508 85.2148 67.5433 85.1532L67.0064 85.0789C66.8884 85.0626 66.7684 85.0698 66.6532 85.1001C66.538 85.1305 66.4298 85.1834 66.3349 85.2559C66.24 85.3283 66.1602 85.4188 66.1001 85.5223C66.0399 85.6258 66.0006 85.7402 65.9844 85.8589L64.4191 97.3208C64.4029 97.4396 64.41 97.5604 64.4402 97.6764C64.4704 97.7924 64.523 97.9012 64.5949 97.9968C64.6669 98.0923 64.7568 98.1726 64.8596 98.2331C64.9624 98.2936 65.0761 98.3332 65.194 98.3495L69.6193 98.9618C69.8576 98.9948 70.0991 98.9311 70.2907 98.7849C70.4824 98.6386 70.6085 98.4216 70.6412 98.1818L72.2066 86.7198C72.2393 86.48 72.1761 86.2369 72.0308 86.044C71.8854 85.851 71.6699 85.7241 71.4316 85.6912Z" fill="white"/>
<path d="M68.2932 95.2073C69.6548 95.2073 70.7587 94.0962 70.7587 92.7256C70.7587 91.355 69.6548 90.2439 68.2932 90.2439C66.9315 90.2439 65.8276 91.355 65.8276 92.7256C65.8276 94.0962 66.9315 95.2073 68.2932 95.2073Z" fill="#EA5E44"/>
<path d="M68.0488 93.6723C67.9933 93.6724 67.9393 93.6544 67.8949 93.6209L67.8922 93.6188L67.3128 93.1723C67.2858 93.1516 67.2632 93.1258 67.2462 93.0964C67.2292 93.0669 67.2181 93.0343 67.2136 93.0005C67.2091 92.9667 67.2113 92.9324 67.22 92.8994C67.2287 92.8665 67.2438 92.8356 67.2644 92.8085C67.285 92.7815 67.3107 92.7588 67.34 92.7417C67.3694 92.7247 67.4017 92.7136 67.4353 92.7092C67.4689 92.7048 67.503 92.7071 67.5357 92.716C67.5684 92.7248 67.5991 92.7401 67.6259 92.7609L68.0012 93.0506L68.8881 91.8864C68.9087 91.8594 68.9343 91.8367 68.9636 91.8197C68.9929 91.8027 69.0252 91.7916 69.0587 91.7871C69.0922 91.7827 69.1263 91.7849 69.1589 91.7937C69.1916 91.8025 69.2222 91.8177 69.249 91.8384C69.3031 91.8803 69.3387 91.9421 69.3476 92.0102C69.3565 92.0783 69.3383 92.1472 69.2968 92.2018L68.2536 93.5712C68.2295 93.6028 68.1984 93.6283 68.1629 93.6458C68.1274 93.6634 68.0884 93.6724 68.0488 93.6723Z" fill="white"/>
<path d="M91.0168 148H5.62026C5.56081 148 5.5038 147.976 5.46177 147.934C5.41974 147.892 5.39612 147.834 5.39612 147.774C5.39612 147.715 5.41974 147.657 5.46177 147.615C5.5038 147.573 5.56081 147.549 5.62026 147.549H91.0168C91.0762 147.549 91.1332 147.573 91.1752 147.615C91.2173 147.657 91.2409 147.715 91.2409 147.774C91.2409 147.834 91.2173 147.892 91.1752 147.934C91.1332 147.976 91.0762 148 91.0168 148Z" fill="#3F3D56"/>
</g>
<defs>
<clipPath id="clip0_117_725">
<rect width="190" height="148" fill="white"/>
</clipPath>
</defs>
</svg>
