<svg width="148" height="99" viewBox="0 0 148 99" fill="none" xmlns="http://www.w3.org/2000/svg">
<g clip-path="url(#clip0_31_31)">
<path d="M80.0288 97.1556V68.3562C80.0293 67.9527 80.1959 67.5659 80.492 67.2806C80.7881 66.9954 81.1896 66.8349 81.6083 66.8344H85.195C85.6138 66.8349 86.0153 66.9954 86.3114 67.2806C86.6075 67.5659 86.7741 67.9527 86.7746 68.3562V97.1556C86.7741 97.559 86.6075 97.9458 86.3114 98.2311C86.0153 98.5164 85.6138 98.6768 85.195 98.6773H81.6083C81.1896 98.6768 80.7881 98.5164 80.492 98.2311C80.1959 97.9458 80.0293 97.559 80.0288 97.1556Z" fill="#2F2E41"/>
<path d="M72.9349 97.1556V68.3562C72.9354 67.9527 73.102 67.5659 73.3981 67.2806C73.6942 66.9954 74.0957 66.8349 74.5145 66.8344H78.1012C78.5199 66.8349 78.9214 66.9954 79.2175 67.2806C79.5136 67.5659 79.6802 67.9527 79.6807 68.3562V97.1556C79.6802 97.559 79.5136 97.9458 79.2175 98.2311C78.9214 98.5164 78.5199 98.6768 78.1012 98.6773H74.5145C74.0957 98.6768 73.6942 98.5164 73.3981 98.2311C73.102 97.9458 72.9354 97.559 72.9349 97.1556Z" fill="#2F2E41"/>
<path d="M87.1157 58.8481H72.5938C71.7886 58.8481 71.1358 59.477 71.1358 60.2528V76.0568C71.1358 76.8326 71.7886 77.4615 72.5938 77.4615H87.1157C87.9209 77.4615 88.5737 76.8326 88.5737 76.0568V60.2528C88.5737 59.477 87.9209 58.8481 87.1157 58.8481Z" fill="#2F2E41"/>
<path d="M55.4413 13.6013C55.4413 13.6013 48.1126 16.8813 41.9109 19.0566C38.0624 10.6868 32.518 11 32.518 11L29.1567 13.2298L29.7628 16.5743L29.5975 22.0423L28.7158 24.9091L29.981 25.1293L30.6957 25.2542L30.8034 25.1603C30.6251 25.8411 30.5529 26.5437 30.5894 27.2449L62.3844 22.4671C62.3844 22.4671 61.2823 17.5299 55.4413 13.6013Z" fill="#E6E6E6"/>
<path d="M46.0525 56.6502L48.1842 59.4291C48.6628 60.053 49.5758 60.1849 50.2233 59.7238L74.2635 42.6069C74.911 42.1458 75.048 41.2663 74.5694 40.6424L72.4377 37.8635C71.9591 37.2396 71.0461 37.1076 70.3986 37.5687L46.3584 54.6857C45.7109 55.1468 45.5739 56.0263 46.0525 56.6502Z" fill="#F7C16E"/>
<path d="M87.0159 36.9195L83.8477 38.5393C83.1364 38.9029 82.8658 39.7533 83.2433 40.4385L97.2561 65.8776C97.6336 66.5629 98.5162 66.8236 99.2275 66.46L102.396 64.8402C103.107 64.4765 103.378 63.6262 103 62.9409L88.9873 37.5018C88.6098 36.8166 87.7272 36.5558 87.0159 36.9195Z" fill="#F7C16E"/>
<path d="M95.8974 48.2097L90.7232 51.5143C89.9325 51.9186 88.9855 51.6908 88.6081 51.0055L82.8937 40.6316C82.5163 39.9463 82.8513 39.0631 83.642 38.6588L87.1638 36.8582C87.9545 36.454 88.9015 36.6818 89.2789 37.3671L96.6457 46.2369C97.0231 46.9222 96.6881 47.8054 95.8974 48.2097Z" fill="#EA5E44"/>
<path d="M60.6374 45.1708L64.0005 49.4735C64.2651 49.7452 64.6309 49.9044 65.0174 49.9162C65.4039 49.928 65.7795 49.7914 66.0614 49.5364L74.9496 41.499C75.2316 41.244 75.3969 40.8916 75.4091 40.5192C75.4213 40.1469 75.2795 39.7851 75.0149 39.5135L72.5603 36.994C72.2956 36.7224 71.9298 36.5632 71.5433 36.5514C71.1568 36.5396 70.7813 36.6762 70.4994 36.9311L60.7027 43.1852C60.4207 43.4402 60.2555 43.7926 60.2432 44.165C60.231 44.5373 60.3728 44.8991 60.6374 45.1708Z" fill="#EA5E44"/>
<path d="M88.003 36.5056H71.7065C70.9013 36.5056 70.2485 37.1345 70.2485 37.9102V71.2658C70.2485 72.0415 70.9013 72.6704 71.7065 72.6704H88.003C88.8082 72.6704 89.461 72.0415 89.461 71.2658V37.9102C89.461 37.1345 88.8082 36.5056 88.003 36.5056Z" fill="#EA5E44"/>
<path d="M79.7595 34.3287C86.9422 34.3287 92.7649 28.7191 92.7649 21.7992C92.7649 14.8793 86.9422 9.26959 79.7595 9.26959C72.5768 9.26959 66.7541 14.8793 66.7541 21.7992C66.7541 28.7191 72.5768 34.3287 79.7595 34.3287Z" fill="#F7C16E"/>
<path d="M81.2753 25.9826C80.4718 25.9608 79.4718 25.9339 78.7022 25.392C78.4728 25.224 78.2843 25.0097 78.15 24.764C78.0156 24.5184 77.9387 24.2475 77.9245 23.9702C77.9106 23.7732 77.9442 23.5757 78.0226 23.3933C78.101 23.2108 78.2222 23.0484 78.3766 22.9185C78.7786 22.5911 79.3662 22.5138 79.9993 22.6935L79.3434 18.0753L79.8251 18.0117L80.5959 23.4409L80.1939 23.2633C79.7281 23.0571 79.088 22.9523 78.6903 23.2761C78.5927 23.3607 78.5167 23.4658 78.4681 23.5834C78.4195 23.7009 78.3997 23.8276 78.4103 23.9537C78.422 24.1601 78.4798 24.3616 78.5796 24.5446C78.6795 24.7275 78.819 24.8876 78.9888 25.0139C79.5876 25.4355 80.3849 25.4901 81.2891 25.5143L81.2753 25.9826Z" fill="#2F2E41"/>
<path d="M76.9622 18.4736H74.3447V18.9418H76.9622V18.4736Z" fill="#2F2E41"/>
<path d="M85.2244 18.4736H82.6069V18.9418H85.2244V18.4736Z" fill="#2F2E41"/>
<path d="M30.672 24.8295L32.2149 24.3517C32.3802 24.0465 32.0777 24.2423 32.2221 23.9455C36.1256 15.9223 32.518 11 32.518 11L29.7271 12.8513C29.7202 12.8361 29.7146 12.8203 29.7076 12.805C29.7076 12.805 29.2117 11.7433 28.4403 12.5396C28.4403 12.5396 30.8648 18.22 28.1647 25.2807L31.3057 26.6611L32.518 25.2807L32.5455 25.148L30.3759 24.958L30.672 24.8295Z" fill="#F5F5F5"/>
<path d="M74.6726 54.6383C62.2742 51.9839 50.7299 57.4785 50.7299 57.4785L50.6985 57.4515L46.1011 53.497L28.1372 25.2542L32.518 25.2807C44.696 18.2731 61.8333 19.2287 61.8333 19.2287C69.2173 27.2981 74.6726 54.6383 74.6726 54.6383Z" fill="#3F3D56"/>
<path opacity="0.1" d="M50.6985 57.4515L46.1011 53.497L28.1372 25.2542L32.518 25.2808C32.518 25.2808 49.9783 47.4975 50.6985 57.4515Z" fill="black"/>
<path d="M52.7161 35.415C56.4694 34.3059 58.9189 31.5435 58.1871 29.245C57.4553 26.9464 53.8194 25.9822 50.0661 27.0913C46.3128 28.2004 43.8634 30.9628 44.5952 33.2613C45.327 35.5598 48.9629 36.5241 52.7161 35.415Z" fill="#F7C16E"/>
<path d="M108.371 98.5318H51.994V99H108.371V98.5318Z" fill="#3F3D56"/>
</g>
<defs>
<clipPath id="clip0_31_31">
<rect width="148" height="99" fill="white"/>
</clipPath>
</defs>
</svg>
